<?xml version="1.0" encoding="UTF-8" standalone="no"?>
<!DOCTYPE svg PUBLIC "-//W3C//DTD SVG 1.1//EN"
 "http://www.w3.org/Graphics/SVG/1.1/DTD/svg11.dtd">
<!-- Generated by graphviz version 8.1.0 (20230707.0739)
 -->
<!-- Pages: 1 -->
<svg width="1031pt" height="456pt"
 viewBox="0.00 0.00 1030.50 455.50" xmlns="http://www.w3.org/2000/svg" xmlns:xlink="http://www.w3.org/1999/xlink">
<g id="graph0" class="graph" transform="scale(1 1) rotate(0) translate(4 451.5)">
<polygon fill="white" stroke="none" points="-4,4 -4,-451.5 1026.5,-451.5 1026.5,4 -4,4"/>
<!-- node0 -->
<g id="node1" class="node">
<title>node0</title>
<polygon fill="grey" stroke="none" points="141,-423.5 141,-442.5 703,-442.5 703,-423.5 141,-423.5"/>
<text text-anchor="start" x="404" y="-428.2" font-family="DejaVu Sans" font-weight="bold" font-size="14.00">water</text>
<g id="a_node1_0"><a xlink:href="https://example.net/my/extension/water" xlink:title="&lt;TABLE&gt;">
<polygon fill="#eeeeee" stroke="none" points="141,-408.5 141,-423.5 703,-423.5 703,-408.5 141,-408.5"/>
<text text-anchor="start" x="335.75" y="-412" font-family="DejaVu Sans" font-size="10.00" fill="#6666ff">https://example.net/my/extension/water</text>
</a>
</g>
<text text-anchor="start" x="143" y="-393.2" font-family="DejaVu Sans" font-size="14.00">skos:definition</text>
<text text-anchor="start" x="233.88" y="-393.2" font-family="DejaVu Sans" font-size="14.00">&quot;A thing that was considered to be liquid water at the time of observation&quot;@en</text>
<text text-anchor="start" x="142.62" y="-374.2" font-family="DejaVu Sans" font-size="14.00">skos:prefLabel</text>
<text text-anchor="start" x="234" y="-374.2" font-family="DejaVu Sans" font-size="14.00">&quot;Water&quot;@en</text>
<polygon fill="none" stroke="#666666" points="140,-369.5 140,-443.5 704,-443.5 704,-369.5 140,-369.5"/>
</g>
<!-- node1 -->
<g id="node2" class="node">
<title>node1</title>
<polygon fill="grey" stroke="none" points="130,-289 130,-308 714,-308 714,-289 130,-289"/>
<text text-anchor="start" x="404" y="-293.7" font-family="DejaVu Sans" font-weight="bold" font-size="14.00">liquid</text>
<g id="a_node2_1"><a xlink:href="https://example.net/my/extension/liquid" xlink:title="&lt;TABLE&gt;">
<polygon fill="#eeeeee" stroke="none" points="130,-274 130,-289 714,-289 714,-274 130,-274"/>
<text text-anchor="start" x="336.5" y="-277.5" font-family="DejaVu Sans" font-size="10.00" fill="#6666ff">https://example.net/my/extension/liquid</text>
</a>
</g>
<text text-anchor="start" x="132" y="-258.7" font-family="DejaVu Sans" font-size="14.00">skos:definition</text>
<text text-anchor="start" x="222.62" y="-258.7" font-family="DejaVu Sans" font-size="14.00">&quot;A thing that was considered to be of a liquid state at the time of observation&quot;@en</text>
<text text-anchor="start" x="131.62" y="-239.7" font-family="DejaVu Sans" font-size="14.00">skos:prefLabel</text>
<text text-anchor="start" x="223" y="-239.7" font-family="DejaVu Sans" font-size="14.00">&quot;liquid&quot;@en</text>
<polygon fill="none" stroke="#666666" points="129,-235 129,-309 715,-309 715,-235 129,-235"/>
</g>
<!-- node0&#45;&gt;node1 -->
<g id="edge1" class="edge">
<title>node0&#45;&gt;node1</title>
<path fill="none" stroke="BLACK" d="M422,-365.75C422,-352.51 422,-337.59 422,-323.65"/>
<polygon fill="BLACK" stroke="BLACK" points="425.5,-323.73 422,-313.73 418.5,-323.73 425.5,-323.73"/>
<text text-anchor="start" x="422" y="-335.2" font-family="Times,serif" font-size="14.00"> </text>
<text text-anchor="start" x="425.75" y="-335.2" font-family="Times,serif" font-size="10.00" fill="#336633">skos:broader</text>
<text text-anchor="start" x="477.5" y="-335.2" font-family="Times,serif" font-size="14.00"> </text>
</g>
<!-- node2 -->
<g id="node4" class="node">
<title>node2</title>
<polygon fill="grey" stroke="none" points="504.5,-154.5 504.5,-173.5 1013.5,-173.5 1013.5,-154.5 504.5,-154.5"/>
<text text-anchor="start" x="739.5" y="-159.2" font-family="DejaVu Sans" font-weight="bold" font-size="14.00">vocab</text>
<g id="a_node4_2"><a xlink:href="https://example.net/my/extension/vocab" xlink:title="&lt;TABLE&gt;">
<polygon fill="#eeeeee" stroke="none" points="504.5,-139.5 504.5,-154.5 1013.5,-154.5 1013.5,-139.5 504.5,-139.5"/>
<text text-anchor="start" x="671.62" y="-143" font-family="DejaVu Sans" font-size="10.00" fill="#6666ff">https://example.net/my/extension/vocab</text>
</a>
</g>
<text text-anchor="start" x="506.5" y="-124.2" font-family="DejaVu Sans" font-size="14.00">skos:definition</text>
<text text-anchor="start" x="597.5" y="-124.2" font-family="DejaVu Sans" font-size="14.00">&quot;This is an example of an extension to an iSamples vocabulary.&quot;@en</text>
<text text-anchor="start" x="506.12" y="-105.2" font-family="DejaVu Sans" font-size="14.00">skos:prefLabel</text>
<text text-anchor="start" x="597.5" y="-105.2" font-family="DejaVu Sans" font-size="14.00">&quot;Simple Vocabulary Extension&quot;@en</text>
<polygon fill="none" stroke="#666666" points="503.5,-100.5 503.5,-174.5 1014.5,-174.5 1014.5,-100.5 503.5,-100.5"/>
</g>
<!-- node0&#45;&gt;node2 -->
<g id="edge6" class="edge">
<title>node0&#45;&gt;node2</title>
<path fill="none" stroke="BLACK" d="M660.73,-365.57C687.68,-352.54 712.44,-335.43 732,-313 761.25,-279.46 766.01,-227.84 764.65,-189.44"/>
<polygon fill="BLACK" stroke="BLACK" points="768.09,-189.29 764.08,-179.48 761.1,-189.65 768.09,-189.29"/>
<text text-anchor="start" x="763" y="-267.95" font-family="Times,serif" font-size="14.00"> </text>
<text text-anchor="start" x="766.75" y="-267.95" font-family="Times,serif" font-size="10.00" fill="#336633">skos:inScheme</text>
<text text-anchor="start" x="827.5" y="-267.95" font-family="Times,serif" font-size="14.00"> </text>
</g>
<!-- node4 -->
<g id="node5" class="node">
<title>node4</title>
<polygon fill="grey" stroke="none" points="9,-135.5 9,-154.5 217,-154.5 217,-135.5 9,-135.5"/>
<text text-anchor="start" x="86" y="-140.2" font-family="DejaVu Sans" font-weight="bold" font-size="14.00">Concept</text>
<g id="a_node5_3"><a xlink:href="http://www.w3.org/2004/02/skos/core#Concept" xlink:title="&lt;TABLE&gt;">
<polygon fill="#eeeeee" stroke="none" points="9,-120.5 9,-135.5 217,-135.5 217,-120.5 9,-120.5"/>
<text text-anchor="start" x="11" y="-124" font-family="DejaVu Sans" font-size="10.00" fill="#6666ff">http://www.w3.org/2004/02/skos/core#Concept</text>
</a>
</g>
<polygon fill="none" stroke="#666666" points="8,-119.5 8,-155.5 218,-155.5 218,-119.5 8,-119.5"/>
</g>
<!-- node0&#45;&gt;node4 -->
<g id="edge4" class="edge">
<title>node0&#45;&gt;node4</title>
<path fill="none" stroke="BLACK" d="M185.94,-365.61C133.6,-351.86 88.73,-334.4 72.25,-313 39.44,-270.39 69.52,-205.77 92.51,-168.28"/>
<polygon fill="BLACK" stroke="BLACK" points="95.77,-170.69 98.17,-160.37 89.85,-166.94 95.77,-170.69"/>
<text text-anchor="start" x="73" y="-267.95" font-family="Times,serif" font-size="14.00"> </text>
<text text-anchor="start" x="76.75" y="-267.95" font-family="Times,serif" font-size="10.00" fill="#336633">rdf:type</text>
<text text-anchor="start" x="109" y="-267.95" font-family="Times,serif" font-size="14.00"> </text>
</g>
<!-- node3 -->
<g id="node3" class="node">
<title>node3</title>
<polygon fill="grey" stroke="none" points="303.5,-135.5 303.5,-154.5 468.5,-154.5 468.5,-135.5 303.5,-135.5"/>
<text text-anchor="start" x="369.5" y="-140.2" font-family="DejaVu Sans" font-weight="bold" font-size="14.00">thing</text>
<g id="a_node3_4"><a xlink:href="https://example.net/my/minimal/thing" xlink:title="&lt;TABLE&gt;">
<polygon fill="#eeeeee" stroke="none" points="303.5,-120.5 303.5,-135.5 468.5,-135.5 468.5,-120.5 303.5,-120.5"/>
<text text-anchor="start" x="305.38" y="-124" font-family="DejaVu Sans" font-size="10.00" fill="#6666ff">https://example.net/my/minimal/thing</text>
</a>
</g>
<polygon fill="none" stroke="#666666" points="302.5,-119.5 302.5,-155.5 469.5,-155.5 469.5,-119.5 302.5,-119.5"/>
</g>
<!-- node1&#45;&gt;node3 -->
<g id="edge2" class="edge">
<title>node1&#45;&gt;node3</title>
<path fill="none" stroke="BLACK" d="M411.2,-231.25C405.86,-211.58 399.5,-188.2 394.51,-169.82"/>
<polygon fill="BLACK" stroke="BLACK" points="397.67,-169.12 391.67,-160.38 390.92,-170.95 397.67,-169.12"/>
<text text-anchor="start" x="406" y="-200.7" font-family="Times,serif" font-size="14.00"> </text>
<text text-anchor="start" x="409.75" y="-200.7" font-family="Times,serif" font-size="10.00" fill="#336633">skos:broader</text>
<text text-anchor="start" x="461.5" y="-200.7" font-family="Times,serif" font-size="14.00"> </text>
</g>
<!-- node1&#45;&gt;node2 -->
<g id="edge3" class="edge">
<title>node1&#45;&gt;node2</title>
<path fill="none" stroke="BLACK" d="M523.57,-231.07C562.61,-215.72 607.37,-198.12 647.31,-182.42"/>
<polygon fill="BLACK" stroke="BLACK" points="648.32,-185.38 656.35,-178.47 645.76,-178.87 648.32,-185.38"/>
<text text-anchor="start" x="610" y="-200.7" font-family="Times,serif" font-size="14.00"> </text>
<text text-anchor="start" x="613.75" y="-200.7" font-family="Times,serif" font-size="10.00" fill="#336633">skos:inScheme</text>
<text text-anchor="start" x="674.5" y="-200.7" font-family="Times,serif" font-size="14.00"> </text>
</g>
<!-- node1&#45;&gt;node4 -->
<g id="edge8" class="edge">
<title>node1&#45;&gt;node4</title>
<path fill="none" stroke="BLACK" d="M328.87,-231.07C277.76,-209.15 215.96,-182.65 171.6,-163.63"/>
<polygon fill="BLACK" stroke="BLACK" points="173.14,-160.05 162.57,-159.33 170.38,-166.48 173.14,-160.05"/>
<text text-anchor="start" x="286" y="-200.7" font-family="Times,serif" font-size="14.00"> </text>
<text text-anchor="start" x="289.75" y="-200.7" font-family="Times,serif" font-size="10.00" fill="#336633">rdf:type</text>
<text text-anchor="start" x="322" y="-200.7" font-family="Times,serif" font-size="14.00"> </text>
</g>
<!-- node5 -->
<g id="node6" class="node">
<title>node5</title>
<polygon fill="grey" stroke="none" points="515,-20 515,-39 759,-39 759,-20 515,-20"/>
<text text-anchor="start" x="583.75" y="-24.7" font-family="DejaVu Sans" font-weight="bold" font-size="14.00">ConceptScheme</text>
<g id="a_node6_5"><a xlink:href="http://www.w3.org/2004/02/skos/core#ConceptScheme" xlink:title="&lt;TABLE&gt;">
<polygon fill="#eeeeee" stroke="none" points="515,-5 515,-20 759,-20 759,-5 515,-5"/>
<text text-anchor="start" x="517" y="-8.5" font-family="DejaVu Sans" font-size="10.00" fill="#6666ff">http://www.w3.org/2004/02/skos/core#ConceptScheme</text>
</a>
</g>
<polygon fill="none" stroke="#666666" points="514,-4 514,-40 760,-40 760,-4 514,-4"/>
</g>
<!-- node2&#45;&gt;node5 -->
<g id="edge5" class="edge">
<title>node2&#45;&gt;node5</title>
<path fill="none" stroke="BLACK" d="M716.33,-96.8C700.1,-81.7 681.95,-64.82 667.12,-51.02"/>
<polygon fill="BLACK" stroke="BLACK" points="669.96,-48.95 660.25,-44.7 665.19,-54.08 669.96,-48.95"/>
<text text-anchor="start" x="694" y="-66.2" font-family="Times,serif" font-size="14.00"> </text>
<text text-anchor="start" x="697.75" y="-66.2" font-family="Times,serif" font-size="10.00" fill="#336633">rdf:type</text>
<text text-anchor="start" x="730" y="-66.2" font-family="Times,serif" font-size="14.00"> </text>
</g>
<!-- node6 -->
<g id="node7" class="node">
<title>node6</title>
<polygon fill="grey" stroke="none" points="795,-20 795,-39 965,-39 965,-20 795,-20"/>
<text text-anchor="start" x="860.5" y="-24.7" font-family="DejaVu Sans" font-weight="bold" font-size="14.00">vocab</text>
<g id="a_node7_6"><a xlink:href="https://example.net/my/minimal/vocab" xlink:title="&lt;TABLE&gt;">
<polygon fill="#eeeeee" stroke="none" points="795,-5 795,-20 965,-20 965,-5 795,-5"/>
<text text-anchor="start" x="796.75" y="-8.5" font-family="DejaVu Sans" font-size="10.00" fill="#6666ff">https://example.net/my/minimal/vocab</text>
</a>
</g>
<polygon fill="none" stroke="#666666" points="794,-4 794,-40 966,-40 966,-4 794,-4"/>
</g>
<!-- node2&#45;&gt;node6 -->
<g id="edge7" class="edge">
<title>node2&#45;&gt;node6</title>
<path fill="none" stroke="BLACK" d="M801.32,-96.8C817.42,-81.7 835.41,-64.82 850.13,-51.02"/>
<polygon fill="BLACK" stroke="BLACK" points="852.03,-54.1 856.93,-44.7 847.24,-48.99 852.03,-54.1"/>
<text text-anchor="start" x="837" y="-66.2" font-family="Times,serif" font-size="14.00"> </text>
<text text-anchor="start" x="840.75" y="-66.2" font-family="Times,serif" font-size="10.00" fill="#336633">skos:inScheme</text>
<text text-anchor="start" x="901.5" y="-66.2" font-family="Times,serif" font-size="14.00"> </text>
</g>
</g>
</svg>
