<?xml version="1.0" encoding="UTF-8" standalone="no"?>
<!DOCTYPE svg PUBLIC "-//W3C//DTD SVG 1.1//EN"
 "http://www.w3.org/Graphics/SVG/1.1/DTD/svg11.dtd">
<!-- Generated by graphviz version 8.1.0 (20230707.0739)
 -->
<!-- Pages: 1 -->
<svg width="1291pt" height="590pt"
 viewBox="0.00 0.00 1291.25 590.00" xmlns="http://www.w3.org/2000/svg" xmlns:xlink="http://www.w3.org/1999/xlink">
<g id="graph0" class="graph" transform="scale(1 1) rotate(0) translate(4 586)">
<polygon fill="white" stroke="none" points="-4,4 -4,-586 1287.25,-586 1287.25,4 -4,4"/>
<!-- node1 -->
<g id="node1" class="node">
<title>node1</title>
<polygon fill="grey" stroke="none" points="344.5,-154.5 344.5,-173.5 802.5,-173.5 802.5,-154.5 344.5,-154.5"/>
<text text-anchor="start" x="554" y="-159.2" font-family="DejaVu Sans" font-weight="bold" font-size="14.00">vocab</text>
<g id="a_node1_0"><a xlink:href="https://example.net/my/minimal/vocab" xlink:title="&lt;TABLE&gt;">
<polygon fill="#eeeeee" stroke="none" points="344.5,-139.5 344.5,-154.5 802.5,-154.5 802.5,-139.5 344.5,-139.5"/>
<text text-anchor="start" x="490.25" y="-143" font-family="DejaVu Sans" font-size="10.00" fill="#6666ff">https://example.net/my/minimal/vocab</text>
</a>
</g>
<text text-anchor="start" x="346.5" y="-124.2" font-family="DejaVu Sans" font-size="14.00">skos:definition</text>
<text text-anchor="start" x="437.5" y="-124.2" font-family="DejaVu Sans" font-size="14.00">&quot;This is an example of a minimal iSamples vocabulary.&quot;@en</text>
<text text-anchor="start" x="346.12" y="-105.2" font-family="DejaVu Sans" font-size="14.00">skos:prefLabel</text>
<text text-anchor="start" x="437.5" y="-105.2" font-family="DejaVu Sans" font-size="14.00">&quot;Minimal Example Vocabulary&quot;@en</text>
<polygon fill="none" stroke="#666666" points="343.5,-100.5 343.5,-174.5 803.5,-174.5 803.5,-100.5 343.5,-100.5"/>
</g>
<!-- node2 -->
<g id="node2" class="node">
<title>node2</title>
<polygon fill="grey" stroke="none" points="490.5,-20 490.5,-39 656.5,-39 656.5,-20 490.5,-20"/>
<text text-anchor="start" x="559.25" y="-24.7" font-family="DejaVu Sans" font-weight="bold" font-size="14.00">core</text>
<g id="a_node2_1"><a xlink:href="http://www.w3.org/2004/02/skos/core" xlink:title="&lt;TABLE&gt;">
<polygon fill="#eeeeee" stroke="none" points="490.5,-5 490.5,-20 656.5,-20 656.5,-5 490.5,-5"/>
<text text-anchor="start" x="492.5" y="-8.5" font-family="DejaVu Sans" font-size="10.00" fill="#6666ff">http://www.w3.org/2004/02/skos/core</text>
</a>
</g>
<polygon fill="none" stroke="#666666" points="489.5,-4 489.5,-40 657.5,-40 657.5,-4 489.5,-4"/>
</g>
<!-- node1&#45;&gt;node2 -->
<g id="edge1" class="edge">
<title>node1&#45;&gt;node2</title>
<path fill="none" stroke="BLACK" d="M573.5,-96.8C573.5,-82.96 573.5,-67.62 573.5,-54.53"/>
<polygon fill="BLACK" stroke="BLACK" points="577,-54.7 573.5,-44.7 570,-54.7 577,-54.7"/>
<text text-anchor="start" x="573.5" y="-66.2" font-family="Times,serif" font-size="14.00"> </text>
<text text-anchor="start" x="577.25" y="-66.2" font-family="Times,serif" font-size="10.00" fill="#336633">owl:imports</text>
<text text-anchor="start" x="626.75" y="-66.2" font-family="Times,serif" font-size="14.00"> </text>
</g>
<!-- node3 -->
<g id="node3" class="node">
<title>node3</title>
<polygon fill="grey" stroke="none" points="183.5,-20 183.5,-39 427.5,-39 427.5,-20 183.5,-20"/>
<text text-anchor="start" x="252.25" y="-24.7" font-family="DejaVu Sans" font-weight="bold" font-size="14.00">ConceptScheme</text>
<g id="a_node3_2"><a xlink:href="http://www.w3.org/2004/02/skos/core#ConceptScheme" xlink:title="&lt;TABLE&gt;">
<polygon fill="#eeeeee" stroke="none" points="183.5,-5 183.5,-20 427.5,-20 427.5,-5 183.5,-5"/>
<text text-anchor="start" x="185.5" y="-8.5" font-family="DejaVu Sans" font-size="10.00" fill="#6666ff">http://www.w3.org/2004/02/skos/core#ConceptScheme</text>
</a>
</g>
<polygon fill="none" stroke="#666666" points="182.5,-4 182.5,-40 428.5,-40 428.5,-4 182.5,-4"/>
</g>
<!-- node1&#45;&gt;node3 -->
<g id="edge2" class="edge">
<title>node1&#45;&gt;node3</title>
<path fill="none" stroke="BLACK" d="M479.39,-96.64C441.39,-80.55 398.69,-62.46 365.1,-48.24"/>
<polygon fill="BLACK" stroke="BLACK" points="366.56,-44.64 355.99,-43.96 363.83,-51.08 366.56,-44.64"/>
<text text-anchor="start" x="430.5" y="-66.2" font-family="Times,serif" font-size="14.00"> </text>
<text text-anchor="start" x="434.25" y="-66.2" font-family="Times,serif" font-size="10.00" fill="#336633">rdf:type</text>
<text text-anchor="start" x="466.5" y="-66.2" font-family="Times,serif" font-size="14.00"> </text>
</g>
<!-- node7 -->
<g id="node4" class="node">
<title>node7</title>
<polygon fill="grey" stroke="none" points="9,-289 9,-308 518,-308 518,-289 9,-289"/>
<text text-anchor="start" x="244" y="-293.7" font-family="DejaVu Sans" font-weight="bold" font-size="14.00">vocab</text>
<g id="a_node4_3"><a xlink:href="https://example.net/my/extension/vocab" xlink:title="&lt;TABLE&gt;">
<polygon fill="#eeeeee" stroke="none" points="9,-274 9,-289 518,-289 518,-274 9,-274"/>
<text text-anchor="start" x="176.12" y="-277.5" font-family="DejaVu Sans" font-size="10.00" fill="#6666ff">https://example.net/my/extension/vocab</text>
</a>
</g>
<text text-anchor="start" x="11" y="-258.7" font-family="DejaVu Sans" font-size="14.00">skos:definition</text>
<text text-anchor="start" x="102" y="-258.7" font-family="DejaVu Sans" font-size="14.00">&quot;This is an example of an extension to an iSamples vocabulary.&quot;@en</text>
<text text-anchor="start" x="10.62" y="-239.7" font-family="DejaVu Sans" font-size="14.00">skos:prefLabel</text>
<text text-anchor="start" x="102" y="-239.7" font-family="DejaVu Sans" font-size="14.00">&quot;Simple Vocabulary Extension&quot;@en</text>
<polygon fill="none" stroke="#666666" points="8,-235 8,-309 519,-309 519,-235 8,-235"/>
</g>
<!-- node7&#45;&gt;node1 -->
<g id="edge15" class="edge">
<title>node7&#45;&gt;node1</title>
<path fill="none" stroke="BLACK" d="M356.93,-231.07C392.69,-215.78 433.67,-198.27 470.29,-182.62"/>
<polygon fill="BLACK" stroke="BLACK" points="471.17,-185.62 478.99,-178.47 468.42,-179.18 471.17,-185.62"/>
<text text-anchor="start" x="436.5" y="-200.7" font-family="Times,serif" font-size="14.00"> </text>
<text text-anchor="start" x="440.25" y="-200.7" font-family="Times,serif" font-size="10.00" fill="#336633">skos:inScheme</text>
<text text-anchor="start" x="501" y="-200.7" font-family="Times,serif" font-size="14.00"> </text>
</g>
<!-- node7&#45;&gt;node3 -->
<g id="edge3" class="edge">
<title>node7&#45;&gt;node3</title>
<path fill="none" stroke="BLACK" d="M267.45,-231.28C271.3,-195.77 277.87,-142.41 286.75,-96.5 289.47,-82.46 293.25,-67.11 296.71,-54.08"/>
<polygon fill="BLACK" stroke="BLACK" points="300.27,-55.33 299.51,-44.76 293.51,-53.5 300.27,-55.33"/>
<text text-anchor="start" x="287.5" y="-133.45" font-family="Times,serif" font-size="14.00"> </text>
<text text-anchor="start" x="291.25" y="-133.45" font-family="Times,serif" font-size="10.00" fill="#336633">rdf:type</text>
<text text-anchor="start" x="323.5" y="-133.45" font-family="Times,serif" font-size="14.00"> </text>
</g>
<!-- node6 -->
<g id="node5" class="node">
<title>node6</title>
<polygon fill="grey" stroke="none" points="106.5,-423.5 106.5,-442.5 690.5,-442.5 690.5,-423.5 106.5,-423.5"/>
<text text-anchor="start" x="380.5" y="-428.2" font-family="DejaVu Sans" font-weight="bold" font-size="14.00">liquid</text>
<g id="a_node5_4"><a xlink:href="https://example.net/my/extension/liquid" xlink:title="&lt;TABLE&gt;">
<polygon fill="#eeeeee" stroke="none" points="106.5,-408.5 106.5,-423.5 690.5,-423.5 690.5,-408.5 106.5,-408.5"/>
<text text-anchor="start" x="313" y="-412" font-family="DejaVu Sans" font-size="10.00" fill="#6666ff">https://example.net/my/extension/liquid</text>
</a>
</g>
<text text-anchor="start" x="108.5" y="-393.2" font-family="DejaVu Sans" font-size="14.00">skos:definition</text>
<text text-anchor="start" x="199.12" y="-393.2" font-family="DejaVu Sans" font-size="14.00">&quot;A thing that was considered to be of a liquid state at the time of observation&quot;@en</text>
<text text-anchor="start" x="108.12" y="-374.2" font-family="DejaVu Sans" font-size="14.00">skos:prefLabel</text>
<text text-anchor="start" x="199.5" y="-374.2" font-family="DejaVu Sans" font-size="14.00">&quot;liquid&quot;@en</text>
<polygon fill="none" stroke="#666666" points="105.5,-369.5 105.5,-443.5 691.5,-443.5 691.5,-369.5 105.5,-369.5"/>
</g>
<!-- node6&#45;&gt;node7 -->
<g id="edge13" class="edge">
<title>node6&#45;&gt;node7</title>
<path fill="none" stroke="BLACK" d="M358,-365.75C343.45,-351.46 326.89,-335.22 311.75,-320.35"/>
<polygon fill="BLACK" stroke="BLACK" points="314.56,-318.23 304.98,-313.73 309.66,-323.23 314.56,-318.23"/>
<text text-anchor="start" x="339.5" y="-335.2" font-family="Times,serif" font-size="14.00"> </text>
<text text-anchor="start" x="343.25" y="-335.2" font-family="Times,serif" font-size="10.00" fill="#336633">skos:inScheme</text>
<text text-anchor="start" x="404" y="-335.2" font-family="Times,serif" font-size="14.00"> </text>
</g>
<!-- node8 -->
<g id="node6" class="node">
<title>node8</title>
<polygon fill="grey" stroke="none" points="873.5,-135.5 873.5,-154.5 1081.5,-154.5 1081.5,-135.5 873.5,-135.5"/>
<text text-anchor="start" x="950.5" y="-140.2" font-family="DejaVu Sans" font-weight="bold" font-size="14.00">Concept</text>
<g id="a_node6_5"><a xlink:href="http://www.w3.org/2004/02/skos/core#Concept" xlink:title="&lt;TABLE&gt;">
<polygon fill="#eeeeee" stroke="none" points="873.5,-120.5 873.5,-135.5 1081.5,-135.5 1081.5,-120.5 873.5,-120.5"/>
<text text-anchor="start" x="875.5" y="-124" font-family="DejaVu Sans" font-size="10.00" fill="#6666ff">http://www.w3.org/2004/02/skos/core#Concept</text>
</a>
</g>
<polygon fill="none" stroke="#666666" points="872.5,-119.5 872.5,-155.5 1082.5,-155.5 1082.5,-119.5 872.5,-119.5"/>
</g>
<!-- node6&#45;&gt;node8 -->
<g id="edge4" class="edge">
<title>node6&#45;&gt;node8</title>
<path fill="none" stroke="BLACK" d="M699.33,-366.54C770.69,-356.98 826.95,-349.03 828.5,-347.5 865.75,-310.73 815.87,-273.97 845.75,-231 855.23,-217.36 864.55,-222.02 878.5,-213 900.8,-198.58 924.62,-180.75 943.3,-166.14"/>
<polygon fill="BLACK" stroke="BLACK" points="945.07,-168.41 950.76,-159.47 940.74,-162.91 945.07,-168.41"/>
<text text-anchor="start" x="845.5" y="-267.95" font-family="Times,serif" font-size="14.00"> </text>
<text text-anchor="start" x="849.25" y="-267.95" font-family="Times,serif" font-size="10.00" fill="#336633">rdf:type</text>
<text text-anchor="start" x="881.5" y="-267.95" font-family="Times,serif" font-size="14.00"> </text>
</g>
<!-- node4 -->
<g id="node8" class="node">
<title>node4</title>
<polygon fill="grey" stroke="none" points="554,-289 554,-308 797,-308 797,-289 554,-289"/>
<text text-anchor="start" x="659" y="-293.7" font-family="DejaVu Sans" font-weight="bold" font-size="14.00">thing</text>
<g id="a_node8_6"><a xlink:href="https://example.net/my/minimal/thing" xlink:title="&lt;TABLE&gt;">
<polygon fill="#eeeeee" stroke="none" points="554,-274 554,-289 797,-289 797,-274 554,-274"/>
<text text-anchor="start" x="594.88" y="-277.5" font-family="DejaVu Sans" font-size="10.00" fill="#6666ff">https://example.net/my/minimal/thing</text>
</a>
</g>
<text text-anchor="start" x="556" y="-258.7" font-family="DejaVu Sans" font-size="14.00">skos:definition</text>
<text text-anchor="start" x="646.75" y="-258.7" font-family="DejaVu Sans" font-size="14.00">&quot;Any physical thing&quot;@en</text>
<text text-anchor="start" x="555.62" y="-239.7" font-family="DejaVu Sans" font-size="14.00">skos:prefLabel</text>
<text text-anchor="start" x="647" y="-239.7" font-family="DejaVu Sans" font-size="14.00">&quot;thing&quot;@en</text>
<polygon fill="none" stroke="#666666" points="553,-235 553,-309 798,-309 798,-235 553,-235"/>
</g>
<!-- node6&#45;&gt;node4 -->
<g id="edge11" class="edge">
<title>node6&#45;&gt;node4</title>
<path fill="none" stroke="BLACK" d="M481.98,-365.57C513.74,-350.38 550.1,-332.99 582.66,-317.41"/>
<polygon fill="BLACK" stroke="BLACK" points="583.68,-320.32 591.19,-312.85 580.65,-314.01 583.68,-320.32"/>
<text text-anchor="start" x="553.5" y="-335.2" font-family="Times,serif" font-size="14.00"> </text>
<text text-anchor="start" x="557.25" y="-335.2" font-family="Times,serif" font-size="10.00" fill="#336633">skos:broader</text>
<text text-anchor="start" x="609" y="-335.2" font-family="Times,serif" font-size="14.00"> </text>
</g>
<!-- node0 -->
<g id="node7" class="node">
<title>node0</title>
<polygon fill="grey" stroke="none" points="726.5,-423.5 726.5,-442.5 1214.5,-442.5 1214.5,-423.5 726.5,-423.5"/>
<text text-anchor="start" x="954.75" y="-428.2" font-family="DejaVu Sans" font-weight="bold" font-size="14.00">solid</text>
<g id="a_node7_7"><a xlink:href="https://example.net/my/minimal/solid" xlink:title="&lt;TABLE&gt;">
<polygon fill="#eeeeee" stroke="none" points="726.5,-408.5 726.5,-423.5 1214.5,-423.5 1214.5,-408.5 726.5,-408.5"/>
<text text-anchor="start" x="890.25" y="-412" font-family="DejaVu Sans" font-size="10.00" fill="#6666ff">https://example.net/my/minimal/solid</text>
</a>
</g>
<text text-anchor="start" x="728.5" y="-393.2" font-family="DejaVu Sans" font-size="14.00">skos:definition</text>
<text text-anchor="start" x="819.5" y="-393.2" font-family="DejaVu Sans" font-size="14.00">&quot;A thing that was considered solid at the time of observation&quot;@en</text>
<text text-anchor="start" x="728.12" y="-374.2" font-family="DejaVu Sans" font-size="14.00">skos:prefLabel</text>
<text text-anchor="start" x="819.5" y="-374.2" font-family="DejaVu Sans" font-size="14.00">&quot;solid&quot;@en</text>
<polygon fill="none" stroke="#666666" points="725.5,-369.5 725.5,-443.5 1215.5,-443.5 1215.5,-369.5 725.5,-369.5"/>
</g>
<!-- node0&#45;&gt;node1 -->
<g id="edge5" class="edge">
<title>node0&#45;&gt;node1</title>
<path fill="none" stroke="BLACK" d="M946.32,-365.65C937,-349.57 926.61,-330.67 918.25,-313 892.92,-259.45 905.32,-225.21 853.5,-196.5 843.28,-190.84 832.57,-185.72 821.54,-181.11"/>
<polygon fill="BLACK" stroke="BLACK" points="822.92,-177.49 812.34,-177.01 820.31,-183.98 822.92,-177.49"/>
<text text-anchor="start" x="917.5" y="-267.95" font-family="Times,serif" font-size="14.00"> </text>
<text text-anchor="start" x="921.25" y="-267.95" font-family="Times,serif" font-size="10.00" fill="#336633">skos:inScheme</text>
<text text-anchor="start" x="982" y="-267.95" font-family="Times,serif" font-size="14.00"> </text>
</g>
<!-- node0&#45;&gt;node8 -->
<g id="edge8" class="edge">
<title>node0&#45;&gt;node8</title>
<path fill="none" stroke="BLACK" d="M981.04,-365.74C984.83,-349.51 988.63,-330.48 990.5,-313 995.83,-263.12 988.88,-204.98 983.27,-170"/>
<polygon fill="BLACK" stroke="BLACK" points="986.61,-169.78 981.51,-160.49 979.71,-170.93 986.61,-169.78"/>
<text text-anchor="start" x="991.5" y="-267.95" font-family="Times,serif" font-size="14.00"> </text>
<text text-anchor="start" x="995.25" y="-267.95" font-family="Times,serif" font-size="10.00" fill="#336633">rdf:type</text>
<text text-anchor="start" x="1027.5" y="-267.95" font-family="Times,serif" font-size="14.00"> </text>
</g>
<!-- node0&#45;&gt;node4 -->
<g id="edge9" class="edge">
<title>node0&#45;&gt;node4</title>
<path fill="none" stroke="BLACK" d="M881.59,-365.57C847.71,-350.35 808.9,-332.92 774.16,-317.32"/>
<polygon fill="BLACK" stroke="BLACK" points="776.04,-313.87 765.48,-312.97 773.17,-320.26 776.04,-313.87"/>
<text text-anchor="start" x="840.5" y="-335.2" font-family="Times,serif" font-size="14.00"> </text>
<text text-anchor="start" x="844.25" y="-335.2" font-family="Times,serif" font-size="10.00" fill="#336633">skos:broader</text>
<text text-anchor="start" x="896" y="-335.2" font-family="Times,serif" font-size="14.00"> </text>
</g>
<!-- node4&#45;&gt;node1 -->
<g id="edge6" class="edge">
<title>node4&#45;&gt;node1</title>
<path fill="none" stroke="BLACK" d="M605.38,-231.06C599.39,-225.59 593.94,-219.56 589.5,-213 584.6,-205.75 581.17,-197.28 578.76,-188.7"/>
<polygon fill="BLACK" stroke="BLACK" points="582.01,-188.19 576.32,-179.25 575.19,-189.79 582.01,-188.19"/>
<text text-anchor="start" x="589.5" y="-200.7" font-family="Times,serif" font-size="14.00"> </text>
<text text-anchor="start" x="593.25" y="-200.7" font-family="Times,serif" font-size="10.00" fill="#336633">skos:topConceptOf</text>
<text text-anchor="start" x="672.75" y="-200.7" font-family="Times,serif" font-size="14.00"> </text>
</g>
<!-- node4&#45;&gt;node8 -->
<g id="edge10" class="edge">
<title>node4&#45;&gt;node8</title>
<path fill="none" stroke="BLACK" d="M761.69,-231.04C786.49,-219.71 813.63,-207.48 838.75,-196.5 863.97,-185.48 891.96,-173.69 916.15,-163.65"/>
<polygon fill="BLACK" stroke="BLACK" points="917.36,-166.52 925.26,-159.46 914.69,-160.05 917.36,-166.52"/>
<text text-anchor="start" x="838.5" y="-200.7" font-family="Times,serif" font-size="14.00"> </text>
<text text-anchor="start" x="842.25" y="-200.7" font-family="Times,serif" font-size="10.00" fill="#336633">rdf:type</text>
<text text-anchor="start" x="874.5" y="-200.7" font-family="Times,serif" font-size="14.00"> </text>
</g>
<!-- node5 -->
<g id="node9" class="node">
<title>node5</title>
<polygon fill="grey" stroke="none" points="117.5,-558 117.5,-577 679.5,-577 679.5,-558 117.5,-558"/>
<text text-anchor="start" x="380.5" y="-562.7" font-family="DejaVu Sans" font-weight="bold" font-size="14.00">water</text>
<g id="a_node9_8"><a xlink:href="https://example.net/my/extension/water" xlink:title="&lt;TABLE&gt;">
<polygon fill="#eeeeee" stroke="none" points="117.5,-543 117.5,-558 679.5,-558 679.5,-543 117.5,-543"/>
<text text-anchor="start" x="312.25" y="-546.5" font-family="DejaVu Sans" font-size="10.00" fill="#6666ff">https://example.net/my/extension/water</text>
</a>
</g>
<text text-anchor="start" x="119.5" y="-527.7" font-family="DejaVu Sans" font-size="14.00">skos:definition</text>
<text text-anchor="start" x="210.38" y="-527.7" font-family="DejaVu Sans" font-size="14.00">&quot;A thing that was considered to be liquid water at the time of observation&quot;@en</text>
<text text-anchor="start" x="119.12" y="-508.7" font-family="DejaVu Sans" font-size="14.00">skos:prefLabel</text>
<text text-anchor="start" x="210.5" y="-508.7" font-family="DejaVu Sans" font-size="14.00">&quot;Water&quot;@en</text>
<polygon fill="none" stroke="#666666" points="116.5,-504 116.5,-578 680.5,-578 680.5,-504 116.5,-504"/>
</g>
<!-- node5&#45;&gt;node7 -->
<g id="edge14" class="edge">
<title>node5&#45;&gt;node7</title>
<path fill="none" stroke="BLACK" d="M135.53,-500.11C82.32,-486.63 37.36,-469.3 20.25,-447.5 -2.25,-418.83 -0.44,-395.5 20.25,-365.5 33.76,-345.91 52.01,-330.46 72.48,-318.28"/>
<polygon fill="BLACK" stroke="BLACK" points="74.03,-320.86 81.04,-312.91 70.6,-314.76 74.03,-320.86"/>
<text text-anchor="start" x="20.5" y="-402.45" font-family="Times,serif" font-size="14.00"> </text>
<text text-anchor="start" x="24.25" y="-402.45" font-family="Times,serif" font-size="10.00" fill="#336633">skos:inScheme</text>
<text text-anchor="start" x="85" y="-402.45" font-family="Times,serif" font-size="14.00"> </text>
</g>
<!-- node5&#45;&gt;node6 -->
<g id="edge7" class="edge">
<title>node5&#45;&gt;node6</title>
<path fill="none" stroke="BLACK" d="M398.5,-500.25C398.5,-487.01 398.5,-472.09 398.5,-458.15"/>
<polygon fill="BLACK" stroke="BLACK" points="402,-458.23 398.5,-448.23 395,-458.23 402,-458.23"/>
<text text-anchor="start" x="398.5" y="-469.7" font-family="Times,serif" font-size="14.00"> </text>
<text text-anchor="start" x="402.25" y="-469.7" font-family="Times,serif" font-size="10.00" fill="#336633">skos:broader</text>
<text text-anchor="start" x="454" y="-469.7" font-family="Times,serif" font-size="14.00"> </text>
</g>
<!-- node5&#45;&gt;node8 -->
<g id="edge12" class="edge">
<title>node5&#45;&gt;node8</title>
<path fill="none" stroke="BLACK" d="M688.34,-526.61C914.36,-513.11 1195.96,-488.32 1232.5,-447.5 1323.53,-345.82 1125.21,-218.48 1027.62,-164.55"/>
<polygon fill="BLACK" stroke="BLACK" points="1029.67,-161.14 1019.22,-159.41 1026.31,-167.28 1029.67,-161.14"/>
<text text-anchor="start" x="1243.5" y="-335.2" font-family="Times,serif" font-size="14.00"> </text>
<text text-anchor="start" x="1247.25" y="-335.2" font-family="Times,serif" font-size="10.00" fill="#336633">rdf:type</text>
<text text-anchor="start" x="1279.5" y="-335.2" font-family="Times,serif" font-size="14.00"> </text>
</g>
</g>
</svg>
