<?xml version="1.0" encoding="UTF-8" standalone="no"?>
<!DOCTYPE svg PUBLIC "-//W3C//DTD SVG 1.1//EN"
 "http://www.w3.org/Graphics/SVG/1.1/DTD/svg11.dtd">
<!-- Generated by graphviz version 8.1.0 (20230707.0739)
 -->
<!-- Pages: 1 -->
<svg width="192pt" height="149pt"
 viewBox="0.00 0.00 192.00 148.50" xmlns="http://www.w3.org/2000/svg" xmlns:xlink="http://www.w3.org/1999/xlink">
<g id="graph0" class="graph" transform="scale(1 1) rotate(0) translate(4 144.5)">
<polygon fill="white" stroke="none" points="-4,4 -4,-144.5 188,-144.5 188,4 -4,4"/>
<!-- node0 -->
<g id="node1" class="node">
<title>node0</title>
<polygon fill="grey" stroke="none" points="9,-116.5 9,-135.5 175,-135.5 175,-116.5 9,-116.5"/>
<text text-anchor="start" x="74" y="-121.2" font-family="DejaVu Sans" font-weight="bold" font-size="14.00">liquid</text>
<g id="a_node1_0"><a xlink:href="https://example.net/my/minimal/liquid" xlink:title="&lt;TABLE&gt;">
<polygon fill="#eeeeee" stroke="none" points="9,-101.5 9,-116.5 175,-116.5 175,-101.5 9,-101.5"/>
<text text-anchor="start" x="10.62" y="-105" font-family="DejaVu Sans" font-size="10.00" fill="#6666ff">https://example.net/my/minimal/liquid</text>
</a>
</g>
<polygon fill="none" stroke="#666666" points="8,-100.5 8,-136.5 176,-136.5 176,-100.5 8,-100.5"/>
</g>
<!-- node1 -->
<g id="node2" class="node">
<title>node1</title>
<polygon fill="grey" stroke="none" points="9.5,-20 9.5,-39 174.5,-39 174.5,-20 9.5,-20"/>
<text text-anchor="start" x="75.5" y="-24.7" font-family="DejaVu Sans" font-weight="bold" font-size="14.00">thing</text>
<g id="a_node2_1"><a xlink:href="https://example.net/my/minimal/thing" xlink:title="&lt;TABLE&gt;">
<polygon fill="#eeeeee" stroke="none" points="9.5,-5 9.5,-20 174.5,-20 174.5,-5 9.5,-5"/>
<text text-anchor="start" x="11.38" y="-8.5" font-family="DejaVu Sans" font-size="10.00" fill="#6666ff">https://example.net/my/minimal/thing</text>
</a>
</g>
<polygon fill="none" stroke="#666666" points="8.5,-4 8.5,-40 175.5,-40 175.5,-4 8.5,-4"/>
</g>
<!-- node0&#45;&gt;node1 -->
<g id="edge1" class="edge">
<title>node0&#45;&gt;node1</title>
<path fill="none" stroke="BLACK" d="M92,-96.53C92,-84.29 92,-68.61 92,-54.88"/>
<polygon fill="BLACK" stroke="BLACK" points="95.5,-54.91 92,-44.91 88.5,-54.91 95.5,-54.91"/>
<text text-anchor="start" x="92" y="-66.2" font-family="Times,serif" font-size="14.00"> </text>
<text text-anchor="start" x="95.75" y="-66.2" font-family="Times,serif" font-size="10.00" fill="#336633">skos:broader</text>
<text text-anchor="start" x="147.5" y="-66.2" font-family="Times,serif" font-size="14.00"> </text>
</g>
</g>
</svg>
