<?xml version="1.0" encoding="UTF-8" standalone="no"?>
<!DOCTYPE svg PUBLIC "-//W3C//DTD SVG 1.1//EN"
 "http://www.w3.org/Graphics/SVG/1.1/DTD/svg11.dtd">
<!-- Generated by graphviz version 8.1.0 (20230707.0739)
 -->
<!-- Pages: 1 -->
<svg width="735pt" height="456pt"
 viewBox="0.00 0.00 735.00 455.50" xmlns="http://www.w3.org/2000/svg" xmlns:xlink="http://www.w3.org/1999/xlink">
<g id="graph0" class="graph" transform="scale(1 1) rotate(0) translate(4 451.5)">
<polygon fill="white" stroke="none" points="-4,4 -4,-451.5 731,-451.5 731,4 -4,4"/>
<!-- node1 -->
<g id="node1" class="node">
<title>node1</title>
<polygon fill="grey" stroke="none" points="9,-154.5 9,-173.5 467,-173.5 467,-154.5 9,-154.5"/>
<text text-anchor="start" x="218.5" y="-159.2" font-family="DejaVu Sans" font-weight="bold" font-size="14.00">vocab</text>
<g id="a_node1_0"><a xlink:href="https://example.net/my/minimal/vocab" xlink:title="&lt;TABLE&gt;">
<polygon fill="#eeeeee" stroke="none" points="9,-139.5 9,-154.5 467,-154.5 467,-139.5 9,-139.5"/>
<text text-anchor="start" x="154.75" y="-143" font-family="DejaVu Sans" font-size="10.00" fill="#6666ff">https://example.net/my/minimal/vocab</text>
</a>
</g>
<text text-anchor="start" x="11" y="-124.2" font-family="DejaVu Sans" font-size="14.00">skos:definition</text>
<text text-anchor="start" x="102" y="-124.2" font-family="DejaVu Sans" font-size="14.00">&quot;This is an example of a minimal iSamples vocabulary.&quot;@en</text>
<text text-anchor="start" x="10.62" y="-105.2" font-family="DejaVu Sans" font-size="14.00">skos:prefLabel</text>
<text text-anchor="start" x="102" y="-105.2" font-family="DejaVu Sans" font-size="14.00">&quot;Minimal Example Vocabulary&quot;@en</text>
<polygon fill="none" stroke="#666666" points="8,-100.5 8,-174.5 468,-174.5 468,-100.5 8,-100.5"/>
</g>
<!-- node2 -->
<g id="node2" class="node">
<title>node2</title>
<polygon fill="grey" stroke="none" points="35,-20 35,-39 201,-39 201,-20 35,-20"/>
<text text-anchor="start" x="103.75" y="-24.7" font-family="DejaVu Sans" font-weight="bold" font-size="14.00">core</text>
<g id="a_node2_1"><a xlink:href="http://www.w3.org/2004/02/skos/core" xlink:title="&lt;TABLE&gt;">
<polygon fill="#eeeeee" stroke="none" points="35,-5 35,-20 201,-20 201,-5 35,-5"/>
<text text-anchor="start" x="37" y="-8.5" font-family="DejaVu Sans" font-size="10.00" fill="#6666ff">http://www.w3.org/2004/02/skos/core</text>
</a>
</g>
<polygon fill="none" stroke="#666666" points="34,-4 34,-40 202,-40 202,-4 34,-4"/>
</g>
<!-- node1&#45;&gt;node2 -->
<g id="edge1" class="edge">
<title>node1&#45;&gt;node2</title>
<path fill="none" stroke="BLACK" d="M196.03,-96.8C180.06,-81.7 162.22,-64.82 147.63,-51.02"/>
<polygon fill="BLACK" stroke="BLACK" points="150.56,-49.03 140.89,-44.7 145.75,-54.12 150.56,-49.03"/>
<text text-anchor="start" x="175" y="-66.2" font-family="Times,serif" font-size="14.00"> </text>
<text text-anchor="start" x="178.75" y="-66.2" font-family="Times,serif" font-size="10.00" fill="#336633">owl:imports</text>
<text text-anchor="start" x="228.25" y="-66.2" font-family="Times,serif" font-size="14.00"> </text>
</g>
<!-- node4 -->
<g id="node4" class="node">
<title>node4</title>
<polygon fill="grey" stroke="none" points="237,-20 237,-39 481,-39 481,-20 237,-20"/>
<text text-anchor="start" x="305.75" y="-24.7" font-family="DejaVu Sans" font-weight="bold" font-size="14.00">ConceptScheme</text>
<g id="a_node4_2"><a xlink:href="http://www.w3.org/2004/02/skos/core#ConceptScheme" xlink:title="&lt;TABLE&gt;">
<polygon fill="#eeeeee" stroke="none" points="237,-5 237,-20 481,-20 481,-5 237,-5"/>
<text text-anchor="start" x="239" y="-8.5" font-family="DejaVu Sans" font-size="10.00" fill="#6666ff">http://www.w3.org/2004/02/skos/core#ConceptScheme</text>
</a>
</g>
<polygon fill="none" stroke="#666666" points="236,-4 236,-40 482,-40 482,-4 236,-4"/>
</g>
<!-- node1&#45;&gt;node4 -->
<g id="edge3" class="edge">
<title>node1&#45;&gt;node4</title>
<path fill="none" stroke="BLACK" d="M280.32,-96.8C296.42,-81.7 314.41,-64.82 329.13,-51.02"/>
<polygon fill="BLACK" stroke="BLACK" points="331.03,-54.1 335.93,-44.7 326.24,-48.99 331.03,-54.1"/>
<text text-anchor="start" x="317" y="-66.2" font-family="Times,serif" font-size="14.00"> </text>
<text text-anchor="start" x="320.75" y="-66.2" font-family="Times,serif" font-size="10.00" fill="#336633">rdf:type</text>
<text text-anchor="start" x="353" y="-66.2" font-family="Times,serif" font-size="14.00"> </text>
</g>
<!-- node3 -->
<g id="node3" class="node">
<title>node3</title>
<polygon fill="grey" stroke="none" points="329.5,-289 329.5,-308 572.5,-308 572.5,-289 329.5,-289"/>
<text text-anchor="start" x="434.5" y="-293.7" font-family="DejaVu Sans" font-weight="bold" font-size="14.00">thing</text>
<g id="a_node3_3"><a xlink:href="https://example.net/my/minimal/thing" xlink:title="&lt;TABLE&gt;">
<polygon fill="#eeeeee" stroke="none" points="329.5,-274 329.5,-289 572.5,-289 572.5,-274 329.5,-274"/>
<text text-anchor="start" x="370.38" y="-277.5" font-family="DejaVu Sans" font-size="10.00" fill="#6666ff">https://example.net/my/minimal/thing</text>
</a>
</g>
<text text-anchor="start" x="331.5" y="-258.7" font-family="DejaVu Sans" font-size="14.00">skos:definition</text>
<text text-anchor="start" x="422.25" y="-258.7" font-family="DejaVu Sans" font-size="14.00">&quot;Any physical thing&quot;@en</text>
<text text-anchor="start" x="331.12" y="-239.7" font-family="DejaVu Sans" font-size="14.00">skos:prefLabel</text>
<text text-anchor="start" x="422.5" y="-239.7" font-family="DejaVu Sans" font-size="14.00">&quot;thing&quot;@en</text>
<polygon fill="none" stroke="#666666" points="328.5,-235 328.5,-309 573.5,-309 573.5,-235 328.5,-235"/>
</g>
<!-- node3&#45;&gt;node1 -->
<g id="edge2" class="edge">
<title>node3&#45;&gt;node1</title>
<path fill="none" stroke="BLACK" d="M386.8,-231.07C363.02,-216.27 335.87,-199.38 311.33,-184.12"/>
<polygon fill="BLACK" stroke="BLACK" points="313.4,-180.66 303.06,-178.35 309.71,-186.61 313.4,-180.66"/>
<text text-anchor="start" x="358" y="-200.7" font-family="Times,serif" font-size="14.00"> </text>
<text text-anchor="start" x="361.75" y="-200.7" font-family="Times,serif" font-size="10.00" fill="#336633">skos:topConceptOf</text>
<text text-anchor="start" x="441.25" y="-200.7" font-family="Times,serif" font-size="14.00"> </text>
</g>
<!-- node5 -->
<g id="node6" class="node">
<title>node5</title>
<polygon fill="grey" stroke="none" points="510,-135.5 510,-154.5 718,-154.5 718,-135.5 510,-135.5"/>
<text text-anchor="start" x="587" y="-140.2" font-family="DejaVu Sans" font-weight="bold" font-size="14.00">Concept</text>
<g id="a_node6_4"><a xlink:href="http://www.w3.org/2004/02/skos/core#Concept" xlink:title="&lt;TABLE&gt;">
<polygon fill="#eeeeee" stroke="none" points="510,-120.5 510,-135.5 718,-135.5 718,-120.5 510,-120.5"/>
<text text-anchor="start" x="512" y="-124" font-family="DejaVu Sans" font-size="10.00" fill="#6666ff">http://www.w3.org/2004/02/skos/core#Concept</text>
</a>
</g>
<polygon fill="none" stroke="#666666" points="509,-119.5 509,-155.5 719,-155.5 719,-119.5 509,-119.5"/>
</g>
<!-- node3&#45;&gt;node5 -->
<g id="edge6" class="edge">
<title>node3&#45;&gt;node5</title>
<path fill="none" stroke="BLACK" d="M499.91,-231.25C525.68,-210.29 556.67,-185.1 579.84,-166.27"/>
<polygon fill="BLACK" stroke="BLACK" points="581.76,-168.41 587.31,-159.38 577.34,-162.97 581.76,-168.41"/>
<text text-anchor="start" x="542" y="-200.7" font-family="Times,serif" font-size="14.00"> </text>
<text text-anchor="start" x="545.75" y="-200.7" font-family="Times,serif" font-size="10.00" fill="#336633">rdf:type</text>
<text text-anchor="start" x="578" y="-200.7" font-family="Times,serif" font-size="14.00"> </text>
</g>
<!-- node0 -->
<g id="node5" class="node">
<title>node0</title>
<polygon fill="grey" stroke="none" points="207,-423.5 207,-442.5 695,-442.5 695,-423.5 207,-423.5"/>
<text text-anchor="start" x="435.25" y="-428.2" font-family="DejaVu Sans" font-weight="bold" font-size="14.00">solid</text>
<g id="a_node5_5"><a xlink:href="https://example.net/my/minimal/solid" xlink:title="&lt;TABLE&gt;">
<polygon fill="#eeeeee" stroke="none" points="207,-408.5 207,-423.5 695,-423.5 695,-408.5 207,-408.5"/>
<text text-anchor="start" x="370.75" y="-412" font-family="DejaVu Sans" font-size="10.00" fill="#6666ff">https://example.net/my/minimal/solid</text>
</a>
</g>
<text text-anchor="start" x="209" y="-393.2" font-family="DejaVu Sans" font-size="14.00">skos:definition</text>
<text text-anchor="start" x="300" y="-393.2" font-family="DejaVu Sans" font-size="14.00">&quot;A thing that was considered solid at the time of observation&quot;@en</text>
<text text-anchor="start" x="208.62" y="-374.2" font-family="DejaVu Sans" font-size="14.00">skos:prefLabel</text>
<text text-anchor="start" x="300" y="-374.2" font-family="DejaVu Sans" font-size="14.00">&quot;solid&quot;@en</text>
<polygon fill="none" stroke="#666666" points="206,-369.5 206,-443.5 696,-443.5 696,-369.5 206,-369.5"/>
</g>
<!-- node0&#45;&gt;node1 -->
<g id="edge7" class="edge">
<title>node0&#45;&gt;node1</title>
<path fill="none" stroke="BLACK" d="M303.77,-365.56C279.75,-352.61 257.83,-335.52 242.75,-313 218.5,-276.79 220,-226.19 225.97,-188.81"/>
<polygon fill="BLACK" stroke="BLACK" points="229.56,-189.6 227.84,-179.15 222.66,-188.39 229.56,-189.6"/>
<text text-anchor="start" x="243" y="-267.95" font-family="Times,serif" font-size="14.00"> </text>
<text text-anchor="start" x="246.75" y="-267.95" font-family="Times,serif" font-size="10.00" fill="#336633">skos:inScheme</text>
<text text-anchor="start" x="307.5" y="-267.95" font-family="Times,serif" font-size="14.00"> </text>
</g>
<!-- node0&#45;&gt;node3 -->
<g id="edge5" class="edge">
<title>node0&#45;&gt;node3</title>
<path fill="none" stroke="BLACK" d="M451,-365.75C451,-352.51 451,-337.59 451,-323.65"/>
<polygon fill="BLACK" stroke="BLACK" points="454.5,-323.73 451,-313.73 447.5,-323.73 454.5,-323.73"/>
<text text-anchor="start" x="451" y="-335.2" font-family="Times,serif" font-size="14.00"> </text>
<text text-anchor="start" x="454.75" y="-335.2" font-family="Times,serif" font-size="10.00" fill="#336633">skos:broader</text>
<text text-anchor="start" x="506.5" y="-335.2" font-family="Times,serif" font-size="14.00"> </text>
</g>
<!-- node0&#45;&gt;node5 -->
<g id="edge4" class="edge">
<title>node0&#45;&gt;node5</title>
<path fill="none" stroke="BLACK" d="M536.27,-365.64C557.32,-351.85 577.64,-334.36 591,-313 618.39,-269.21 619.64,-207.18 617.32,-170.08"/>
<polygon fill="BLACK" stroke="BLACK" points="620.76,-170.12 616.52,-160.42 613.78,-170.65 620.76,-170.12"/>
<text text-anchor="start" x="616" y="-267.95" font-family="Times,serif" font-size="14.00"> </text>
<text text-anchor="start" x="619.75" y="-267.95" font-family="Times,serif" font-size="10.00" fill="#336633">rdf:type</text>
<text text-anchor="start" x="652" y="-267.95" font-family="Times,serif" font-size="14.00"> </text>
</g>
</g>
</svg>
