<?xml version="1.0" encoding="UTF-8" standalone="no"?>
<!DOCTYPE svg PUBLIC "-//W3C//DTD SVG 1.1//EN"
 "http://www.w3.org/Graphics/SVG/1.1/DTD/svg11.dtd">
<!-- Generated by graphviz version 9.0.0 (20230911.1827)
 -->
<!-- Pages: 1 -->
<svg width="853pt" height="532pt"
 viewBox="0.00 0.00 852.50 531.50" xmlns="http://www.w3.org/2000/svg" xmlns:xlink="http://www.w3.org/1999/xlink">
<g id="graph0" class="graph" transform="scale(1 1) rotate(0) translate(4 527.5)">
<polygon fill="white" stroke="none" points="-4,4 -4,-527.5 848.5,-527.5 848.5,4 -4,4"/>
<!-- node0 -->
<g id="node1" class="node">
<title>node0</title>
<polygon fill="grey" stroke="none" points="16,-192.5 16,-211.5 486,-211.5 486,-192.5 16,-192.5"/>
<text text-anchor="start" x="231.5" y="-197.2" font-family="DejaVu Sans" font-weight="bold" font-size="14.00">vocab</text>
<g id="a_node1_0"><a xlink:href="https://example.net/my/minimal/vocab" xlink:title="&lt;TABLE&gt;">
<polygon fill="#eeeeee" stroke="none" points="16,-177.5 16,-192.5 486,-192.5 486,-177.5 16,-177.5"/>
<text text-anchor="start" x="167.75" y="-181" font-family="DejaVu Sans" font-size="10.00" fill="#6666ff">https://example.net/my/minimal/vocab</text>
</a>
</g>
<text text-anchor="start" x="18" y="-162.2" font-family="DejaVu Sans" font-size="14.00">skos:definition</text>
<text text-anchor="start" x="121" y="-162.2" font-family="DejaVu Sans" font-size="14.00">&quot;This is an example of a minimal iSamples vocabulary.&quot;@en</text>
<text text-anchor="start" x="17.62" y="-143.2" font-family="DejaVu Sans" font-size="14.00">skos:historyNote</text>
<text text-anchor="start" x="121" y="-143.2" font-family="DejaVu Sans" font-size="14.00">&quot;2023&#45;07&#45;01 DV Created for structural reference.&quot;@en</text>
<text text-anchor="start" x="17.62" y="-124.2" font-family="DejaVu Sans" font-size="14.00">skos:historyNote</text>
<text text-anchor="start" x="121" y="-124.2" font-family="DejaVu Sans" font-size="14.00">&quot;2023&#45;07&#45;26 DV Adjusted descriptions.&quot;@en</text>
<text text-anchor="start" x="18" y="-105.2" font-family="DejaVu Sans" font-size="14.00">skos:prefLabel</text>
<text text-anchor="start" x="121" y="-105.2" font-family="DejaVu Sans" font-size="14.00">&quot;Minimal Example Vocabulary&quot;@en</text>
<polygon fill="none" stroke="#666666" points="15,-100.5 15,-212.5 487,-212.5 487,-100.5 15,-100.5"/>
</g>
<!-- node1 -->
<g id="node2" class="node">
<title>node1</title>
<polygon fill="grey" stroke="none" points="9,-20 9,-39 253,-39 253,-20 9,-20"/>
<text text-anchor="start" x="77.75" y="-24.7" font-family="DejaVu Sans" font-weight="bold" font-size="14.00">ConceptScheme</text>
<g id="a_node2_1"><a xlink:href="http://www.w3.org/2004/02/skos/core#ConceptScheme" xlink:title="&lt;TABLE&gt;">
<polygon fill="#eeeeee" stroke="none" points="9,-5 9,-20 253,-20 253,-5 9,-5"/>
<text text-anchor="start" x="11" y="-8.5" font-family="DejaVu Sans" font-size="10.00" fill="#6666ff">http://www.w3.org/2004/02/skos/core#ConceptScheme</text>
</a>
</g>
<polygon fill="none" stroke="#666666" points="8,-4 8,-40 254,-40 254,-4 8,-4"/>
</g>
<!-- node0&#45;&gt;node1 -->
<g id="edge1" class="edge">
<title>node0&#45;&gt;node1</title>
<path fill="none" stroke="BLACK" d="M197.67,-96.61C183.7,-81.19 169.25,-65.23 157.38,-52.13"/>
<polygon fill="BLACK" stroke="BLACK" points="160.31,-50.15 151.01,-45.09 155.12,-54.85 160.31,-50.15"/>
<text text-anchor="start" x="181" y="-66.2" font-family="Times,serif" font-size="14.00"> </text>
<text text-anchor="start" x="184.75" y="-66.2" font-family="Times,serif" font-size="10.00" fill="#336633">rdf:type</text>
<text text-anchor="start" x="217" y="-66.2" font-family="Times,serif" font-size="14.00"> </text>
</g>
<!-- node5 -->
<g id="node6" class="node">
<title>node5</title>
<polygon fill="grey" stroke="none" points="289,-20 289,-39 455,-39 455,-20 289,-20"/>
<text text-anchor="start" x="357.75" y="-24.7" font-family="DejaVu Sans" font-weight="bold" font-size="14.00">core</text>
<g id="a_node6_2"><a xlink:href="http://www.w3.org/2004/02/skos/core" xlink:title="&lt;TABLE&gt;">
<polygon fill="#eeeeee" stroke="none" points="289,-5 289,-20 455,-20 455,-5 289,-5"/>
<text text-anchor="start" x="291" y="-8.5" font-family="DejaVu Sans" font-size="10.00" fill="#6666ff">http://www.w3.org/2004/02/skos/core</text>
</a>
</g>
<polygon fill="none" stroke="#666666" points="288,-4 288,-40 456,-40 456,-4 288,-4"/>
</g>
<!-- node0&#45;&gt;node5 -->
<g id="edge4" class="edge">
<title>node0&#45;&gt;node5</title>
<path fill="none" stroke="BLACK" d="M304.78,-96.61C318.86,-81.19 333.44,-65.23 345.4,-52.13"/>
<polygon fill="BLACK" stroke="BLACK" points="347.67,-54.83 351.83,-45.09 342.5,-50.11 347.67,-54.83"/>
<text text-anchor="start" x="337" y="-66.2" font-family="Times,serif" font-size="14.00"> </text>
<text text-anchor="start" x="340.75" y="-66.2" font-family="Times,serif" font-size="10.00" fill="#336633">owl:imports</text>
<text text-anchor="start" x="390.25" y="-66.2" font-family="Times,serif" font-size="14.00"> </text>
</g>
<!-- node3 -->
<g id="node3" class="node">
<title>node3</title>
<polygon fill="grey" stroke="none" points="38.5,-499.5 38.5,-518.5 835.5,-518.5 835.5,-499.5 38.5,-499.5"/>
<text text-anchor="start" x="421.25" y="-504.2" font-family="DejaVu Sans" font-weight="bold" font-size="14.00">solid</text>
<g id="a_node3_3"><a xlink:href="https://example.net/my/minimal/solid" xlink:title="&lt;TABLE&gt;">
<polygon fill="#eeeeee" stroke="none" points="38.5,-484.5 38.5,-499.5 835.5,-499.5 835.5,-484.5 38.5,-484.5"/>
<text text-anchor="start" x="356.75" y="-488" font-family="DejaVu Sans" font-size="10.00" fill="#6666ff">https://example.net/my/minimal/solid</text>
</a>
</g>
<text text-anchor="start" x="40.5" y="-469.2" font-family="DejaVu Sans" font-size="14.00">skos:definition</text>
<text text-anchor="start" x="143.12" y="-469.2" font-family="DejaVu Sans" font-size="14.00">&quot;A thing that was considered solid at the time of observation. This concept is for demonstration purposes only.&quot;@en</text>
<text text-anchor="start" x="40.12" y="-450.2" font-family="DejaVu Sans" font-size="14.00">skos:historyNote</text>
<text text-anchor="start" x="143.5" y="-450.2" font-family="DejaVu Sans" font-size="14.00">&quot;2023&#45;07&#45;26 DV Added explanatory notes.&quot;</text>
<text text-anchor="start" x="40.5" y="-431.2" font-family="DejaVu Sans" font-size="14.00">skos:prefLabel</text>
<text text-anchor="start" x="143.5" y="-431.2" font-family="DejaVu Sans" font-size="14.00">&quot;Solid&quot;@en</text>
<polygon fill="none" stroke="#666666" points="37.5,-426.5 37.5,-519.5 836.5,-519.5 836.5,-426.5 37.5,-426.5"/>
</g>
<!-- node3&#45;&gt;node0 -->
<g id="edge6" class="edge">
<title>node3&#45;&gt;node0</title>
<path fill="none" stroke="BLACK" d="M178.13,-422.58C129.7,-408.12 89.33,-390.56 73.75,-370 46.64,-334.22 52.05,-308.29 73.75,-269 83.46,-251.41 97.24,-236.22 112.88,-223.21"/>
<polygon fill="BLACK" stroke="BLACK" points="114.88,-226.09 120.56,-217.15 110.54,-220.6 114.88,-226.09"/>
<text text-anchor="start" x="74" y="-315.45" font-family="Times,serif" font-size="14.00"> </text>
<text text-anchor="start" x="77.75" y="-315.45" font-family="Times,serif" font-size="10.00" fill="#336633">skos:inScheme</text>
<text text-anchor="start" x="138.5" y="-315.45" font-family="Times,serif" font-size="14.00"> </text>
</g>
<!-- node2 -->
<g id="node4" class="node">
<title>node2</title>
<polygon fill="grey" stroke="none" points="160.5,-346 160.5,-365 713.5,-365 713.5,-346 160.5,-346"/>
<text text-anchor="start" x="420.5" y="-350.7" font-family="DejaVu Sans" font-weight="bold" font-size="14.00">thing</text>
<g id="a_node4_4"><a xlink:href="https://example.net/my/minimal/thing" xlink:title="&lt;TABLE&gt;">
<polygon fill="#eeeeee" stroke="none" points="160.5,-331 160.5,-346 713.5,-346 713.5,-331 160.5,-331"/>
<text text-anchor="start" x="356.38" y="-334.5" font-family="DejaVu Sans" font-size="10.00" fill="#6666ff">https://example.net/my/minimal/thing</text>
</a>
</g>
<text text-anchor="start" x="162.5" y="-315.7" font-family="DejaVu Sans" font-size="14.00">skos:definition</text>
<text text-anchor="start" x="265.38" y="-315.7" font-family="DejaVu Sans" font-size="14.00">&quot;Any physical thing. This concept is for demonstration purposes only.&quot;@en</text>
<text text-anchor="start" x="162.12" y="-296.7" font-family="DejaVu Sans" font-size="14.00">skos:historyNote</text>
<text text-anchor="start" x="265.5" y="-296.7" font-family="DejaVu Sans" font-size="14.00">&quot;2023&#45;07&#45;26 DV Added explanatory notes.&quot;</text>
<text text-anchor="start" x="162.5" y="-277.7" font-family="DejaVu Sans" font-size="14.00">skos:prefLabel</text>
<text text-anchor="start" x="265.5" y="-277.7" font-family="DejaVu Sans" font-size="14.00">&quot;Thing&quot;@en</text>
<polygon fill="none" stroke="#666666" points="159.5,-273 159.5,-366 714.5,-366 714.5,-273 159.5,-273"/>
</g>
<!-- node3&#45;&gt;node2 -->
<g id="edge2" class="edge">
<title>node3&#45;&gt;node2</title>
<path fill="none" stroke="BLACK" d="M437,-422.81C437,-409.58 437,-395.11 437,-381.33"/>
<polygon fill="BLACK" stroke="BLACK" points="440.5,-381.47 437,-371.47 433.5,-381.47 440.5,-381.47"/>
<text text-anchor="start" x="437" y="-392.2" font-family="Times,serif" font-size="14.00"> </text>
<text text-anchor="start" x="440.75" y="-392.2" font-family="Times,serif" font-size="10.00" fill="#336633">skos:broader</text>
<text text-anchor="start" x="492.5" y="-392.2" font-family="Times,serif" font-size="14.00"> </text>
</g>
<!-- node4 -->
<g id="node5" class="node">
<title>node4</title>
<polygon fill="grey" stroke="none" points="589,-154.5 589,-173.5 797,-173.5 797,-154.5 589,-154.5"/>
<text text-anchor="start" x="666" y="-159.2" font-family="DejaVu Sans" font-weight="bold" font-size="14.00">Concept</text>
<g id="a_node5_5"><a xlink:href="http://www.w3.org/2004/02/skos/core#Concept" xlink:title="&lt;TABLE&gt;">
<polygon fill="#eeeeee" stroke="none" points="589,-139.5 589,-154.5 797,-154.5 797,-139.5 589,-139.5"/>
<text text-anchor="start" x="591" y="-143" font-family="DejaVu Sans" font-size="10.00" fill="#6666ff">http://www.w3.org/2004/02/skos/core#Concept</text>
</a>
</g>
<polygon fill="none" stroke="#666666" points="588,-138.5 588,-174.5 798,-174.5 798,-138.5 588,-138.5"/>
</g>
<!-- node3&#45;&gt;node4 -->
<g id="edge7" class="edge">
<title>node3&#45;&gt;node4</title>
<path fill="none" stroke="BLACK" d="M672.01,-422.5C695,-408.97 715.5,-391.79 731,-370 770.02,-315.16 735.59,-232.67 711.56,-188.33"/>
<polygon fill="BLACK" stroke="BLACK" points="714.7,-186.77 706.76,-179.75 708.59,-190.19 714.7,-186.77"/>
<text text-anchor="start" x="749" y="-315.45" font-family="Times,serif" font-size="14.00"> </text>
<text text-anchor="start" x="752.75" y="-315.45" font-family="Times,serif" font-size="10.00" fill="#336633">rdf:type</text>
<text text-anchor="start" x="785" y="-315.45" font-family="Times,serif" font-size="14.00"> </text>
</g>
<!-- node2&#45;&gt;node0 -->
<g id="edge5" class="edge">
<title>node2&#45;&gt;node0</title>
<path fill="none" stroke="BLACK" d="M379.93,-269.1C363.41,-254.8 345.11,-238.96 327.6,-223.8"/>
<polygon fill="BLACK" stroke="BLACK" points="330.08,-221.32 320.23,-217.42 325.5,-226.61 330.08,-221.32"/>
<text text-anchor="start" x="356" y="-238.7" font-family="Times,serif" font-size="14.00"> </text>
<text text-anchor="start" x="359.75" y="-238.7" font-family="Times,serif" font-size="10.00" fill="#336633">skos:topConceptOf</text>
<text text-anchor="start" x="439.25" y="-238.7" font-family="Times,serif" font-size="14.00"> </text>
</g>
<!-- node2&#45;&gt;node4 -->
<g id="edge3" class="edge">
<title>node2&#45;&gt;node4</title>
<path fill="none" stroke="BLACK" d="M515.55,-269.1C559.94,-241.18 613.7,-207.37 650.34,-184.33"/>
<polygon fill="BLACK" stroke="BLACK" points="651.85,-187.52 658.45,-179.23 648.12,-181.59 651.85,-187.52"/>
<text text-anchor="start" x="565" y="-238.7" font-family="Times,serif" font-size="14.00"> </text>
<text text-anchor="start" x="568.75" y="-238.7" font-family="Times,serif" font-size="10.00" fill="#336633">rdf:type</text>
<text text-anchor="start" x="601" y="-238.7" font-family="Times,serif" font-size="14.00"> </text>
</g>
</g>
</svg>
