<?xml version="1.0" encoding="UTF-8" standalone="no"?>
<!DOCTYPE svg PUBLIC "-//W3C//DTD SVG 1.1//EN"
 "http://www.w3.org/Graphics/SVG/1.1/DTD/svg11.dtd">
<!-- Generated by graphviz version 9.0.0 (20230911.1827)
 -->
<!-- Pages: 1 -->
<svg width="1237pt" height="532pt"
 viewBox="0.00 0.00 1237.25 531.50" xmlns="http://www.w3.org/2000/svg" xmlns:xlink="http://www.w3.org/1999/xlink">
<g id="graph0" class="graph" transform="scale(1 1) rotate(0) translate(4 527.5)">
<polygon fill="white" stroke="none" points="-4,4 -4,-527.5 1233.25,-527.5 1233.25,4 -4,4"/>
<!-- node0 -->
<g id="node1" class="node">
<title>node0</title>
<polygon fill="grey" stroke="none" points="9,-154.5 9,-173.5 518,-173.5 518,-154.5 9,-154.5"/>
<text text-anchor="start" x="244" y="-159.2" font-family="DejaVu Sans" font-weight="bold" font-size="14.00">vocab</text>
<g id="a_node1_0"><a xlink:href="https://example.net/my/extension/vocab" xlink:title="&lt;TABLE&gt;">
<polygon fill="#eeeeee" stroke="none" points="9,-139.5 9,-154.5 518,-154.5 518,-139.5 9,-139.5"/>
<text text-anchor="start" x="176.12" y="-143" font-family="DejaVu Sans" font-size="10.00" fill="#6666ff">https://example.net/my/extension/vocab</text>
</a>
</g>
<text text-anchor="start" x="11" y="-124.2" font-family="DejaVu Sans" font-size="14.00">skos:definition</text>
<text text-anchor="start" x="102" y="-124.2" font-family="DejaVu Sans" font-size="14.00">&quot;This is an example of an extension to an iSamples vocabulary.&quot;@en</text>
<text text-anchor="start" x="10.62" y="-105.2" font-family="DejaVu Sans" font-size="14.00">skos:prefLabel</text>
<text text-anchor="start" x="102" y="-105.2" font-family="DejaVu Sans" font-size="14.00">&quot;Simple Vocabulary Extension&quot;@en</text>
<polygon fill="none" stroke="#666666" points="8,-100.5 8,-174.5 519,-174.5 519,-100.5 8,-100.5"/>
</g>
<!-- node1 -->
<g id="node2" class="node">
<title>node1</title>
<polygon fill="grey" stroke="none" points="57.5,-20 57.5,-39 227.5,-39 227.5,-20 57.5,-20"/>
<text text-anchor="start" x="123" y="-24.7" font-family="DejaVu Sans" font-weight="bold" font-size="14.00">vocab</text>
<g id="a_node2_1"><a xlink:href="https://example.net/my/minimal/vocab" xlink:title="&lt;TABLE&gt;">
<polygon fill="#eeeeee" stroke="none" points="57.5,-5 57.5,-20 227.5,-20 227.5,-5 57.5,-5"/>
<text text-anchor="start" x="59.25" y="-8.5" font-family="DejaVu Sans" font-size="10.00" fill="#6666ff">https://example.net/my/minimal/vocab</text>
</a>
</g>
<polygon fill="none" stroke="#666666" points="56.5,-4 56.5,-40 228.5,-40 228.5,-4 56.5,-4"/>
</g>
<!-- node0&#45;&gt;node1 -->
<g id="edge1" class="edge">
<title>node0&#45;&gt;node1</title>
<path fill="none" stroke="BLACK" d="M221.18,-96.8C205.23,-81.84 187.42,-65.13 172.78,-51.41"/>
<polygon fill="BLACK" stroke="BLACK" points="175.36,-49.03 165.67,-44.74 170.57,-54.13 175.36,-49.03"/>
<text text-anchor="start" x="199.5" y="-66.2" font-family="Times,serif" font-size="14.00"> </text>
<text text-anchor="start" x="203.25" y="-66.2" font-family="Times,serif" font-size="10.00" fill="#336633">skos:inScheme</text>
<text text-anchor="start" x="264" y="-66.2" font-family="Times,serif" font-size="14.00"> </text>
</g>
<!-- node6 -->
<g id="node6" class="node">
<title>node6</title>
<polygon fill="grey" stroke="none" points="263.5,-20 263.5,-39 507.5,-39 507.5,-20 263.5,-20"/>
<text text-anchor="start" x="332.25" y="-24.7" font-family="DejaVu Sans" font-weight="bold" font-size="14.00">ConceptScheme</text>
<g id="a_node6_2"><a xlink:href="http://www.w3.org/2004/02/skos/core#ConceptScheme" xlink:title="&lt;TABLE&gt;">
<polygon fill="#eeeeee" stroke="none" points="263.5,-5 263.5,-20 507.5,-20 507.5,-5 263.5,-5"/>
<text text-anchor="start" x="265.5" y="-8.5" font-family="DejaVu Sans" font-size="10.00" fill="#6666ff">http://www.w3.org/2004/02/skos/core#ConceptScheme</text>
</a>
</g>
<polygon fill="none" stroke="#666666" points="262.5,-4 262.5,-40 508.5,-40 508.5,-4 262.5,-4"/>
</g>
<!-- node0&#45;&gt;node6 -->
<g id="edge5" class="edge">
<title>node0&#45;&gt;node6</title>
<path fill="none" stroke="BLACK" d="M306.17,-96.8C322.25,-81.84 340.21,-65.13 354.97,-51.41"/>
<polygon fill="BLACK" stroke="BLACK" points="357.2,-54.11 362.14,-44.73 352.43,-48.98 357.2,-54.11"/>
<text text-anchor="start" x="343.5" y="-66.2" font-family="Times,serif" font-size="14.00"> </text>
<text text-anchor="start" x="347.25" y="-66.2" font-family="Times,serif" font-size="10.00" fill="#336633">rdf:type</text>
<text text-anchor="start" x="379.5" y="-66.2" font-family="Times,serif" font-size="14.00"> </text>
</g>
<!-- node3 -->
<g id="node3" class="node">
<title>node3</title>
<polygon fill="grey" stroke="none" points="276.5,-289 276.5,-308 1158.5,-308 1158.5,-289 276.5,-289"/>
<text text-anchor="start" x="699.5" y="-293.7" font-family="DejaVu Sans" font-weight="bold" font-size="14.00">liquid</text>
<g id="a_node3_3"><a xlink:href="https://example.net/my/extension/liquid" xlink:title="&lt;TABLE&gt;">
<polygon fill="#eeeeee" stroke="none" points="276.5,-274 276.5,-289 1158.5,-289 1158.5,-274 276.5,-274"/>
<text text-anchor="start" x="632" y="-277.5" font-family="DejaVu Sans" font-size="10.00" fill="#6666ff">https://example.net/my/extension/liquid</text>
</a>
</g>
<text text-anchor="start" x="278.5" y="-258.7" font-family="DejaVu Sans" font-size="14.00">skos:definition</text>
<text text-anchor="start" x="369.25" y="-258.7" font-family="DejaVu Sans" font-size="14.00">&quot;A thing that was considered to be of a liquid state at the time of observation. This concept is for demonstration purposes only.&quot;@en</text>
<text text-anchor="start" x="278.12" y="-239.7" font-family="DejaVu Sans" font-size="14.00">skos:prefLabel</text>
<text text-anchor="start" x="369.5" y="-239.7" font-family="DejaVu Sans" font-size="14.00">&quot;Liquid&quot;@en</text>
<polygon fill="none" stroke="#666666" points="275.5,-235 275.5,-309 1159.5,-309 1159.5,-235 275.5,-235"/>
</g>
<!-- node3&#45;&gt;node0 -->
<g id="edge4" class="edge">
<title>node3&#45;&gt;node0</title>
<path fill="none" stroke="BLACK" d="M580.67,-231.07C527.19,-215.46 465.73,-197.52 411.24,-181.62"/>
<polygon fill="BLACK" stroke="BLACK" points="412.47,-178.33 401.89,-178.89 410.51,-185.05 412.47,-178.33"/>
<text text-anchor="start" x="518.5" y="-200.7" font-family="Times,serif" font-size="14.00"> </text>
<text text-anchor="start" x="522.25" y="-200.7" font-family="Times,serif" font-size="10.00" fill="#336633">skos:inScheme</text>
<text text-anchor="start" x="583" y="-200.7" font-family="Times,serif" font-size="14.00"> </text>
</g>
<!-- node4 -->
<g id="node4" class="node">
<title>node4</title>
<polygon fill="grey" stroke="none" points="635,-135.5 635,-154.5 800,-154.5 800,-135.5 635,-135.5"/>
<text text-anchor="start" x="701" y="-140.2" font-family="DejaVu Sans" font-weight="bold" font-size="14.00">thing</text>
<g id="a_node4_4"><a xlink:href="https://example.net/my/minimal/thing" xlink:title="&lt;TABLE&gt;">
<polygon fill="#eeeeee" stroke="none" points="635,-120.5 635,-135.5 800,-135.5 800,-120.5 635,-120.5"/>
<text text-anchor="start" x="636.88" y="-124" font-family="DejaVu Sans" font-size="10.00" fill="#6666ff">https://example.net/my/minimal/thing</text>
</a>
</g>
<polygon fill="none" stroke="#666666" points="634,-119.5 634,-155.5 801,-155.5 801,-119.5 634,-119.5"/>
</g>
<!-- node3&#45;&gt;node4 -->
<g id="edge2" class="edge">
<title>node3&#45;&gt;node4</title>
<path fill="none" stroke="BLACK" d="M717.5,-231.25C717.5,-211.95 717.5,-189.07 717.5,-170.86"/>
<polygon fill="BLACK" stroke="BLACK" points="721,-170.9 717.5,-160.9 714,-170.9 721,-170.9"/>
<text text-anchor="start" x="717.5" y="-200.7" font-family="Times,serif" font-size="14.00"> </text>
<text text-anchor="start" x="721.25" y="-200.7" font-family="Times,serif" font-size="10.00" fill="#336633">skos:broader</text>
<text text-anchor="start" x="773" y="-200.7" font-family="Times,serif" font-size="14.00"> </text>
</g>
<!-- node5 -->
<g id="node5" class="node">
<title>node5</title>
<polygon fill="grey" stroke="none" points="984.5,-135.5 984.5,-154.5 1192.5,-154.5 1192.5,-135.5 984.5,-135.5"/>
<text text-anchor="start" x="1061.5" y="-140.2" font-family="DejaVu Sans" font-weight="bold" font-size="14.00">Concept</text>
<g id="a_node5_5"><a xlink:href="http://www.w3.org/2004/02/skos/core#Concept" xlink:title="&lt;TABLE&gt;">
<polygon fill="#eeeeee" stroke="none" points="984.5,-120.5 984.5,-135.5 1192.5,-135.5 1192.5,-120.5 984.5,-120.5"/>
<text text-anchor="start" x="986.5" y="-124" font-family="DejaVu Sans" font-size="10.00" fill="#6666ff">http://www.w3.org/2004/02/skos/core#Concept</text>
</a>
</g>
<polygon fill="none" stroke="#666666" points="983.5,-119.5 983.5,-155.5 1193.5,-155.5 1193.5,-119.5 983.5,-119.5"/>
</g>
<!-- node3&#45;&gt;node5 -->
<g id="edge3" class="edge">
<title>node3&#45;&gt;node5</title>
<path fill="none" stroke="BLACK" d="M829.32,-231.07C891.09,-209 965.89,-182.29 1019.22,-163.24"/>
<polygon fill="BLACK" stroke="BLACK" points="1020.26,-166.59 1028.5,-159.93 1017.91,-159.99 1020.26,-166.59"/>
<text text-anchor="start" x="924.5" y="-200.7" font-family="Times,serif" font-size="14.00"> </text>
<text text-anchor="start" x="928.25" y="-200.7" font-family="Times,serif" font-size="10.00" fill="#336633">rdf:type</text>
<text text-anchor="start" x="960.5" y="-200.7" font-family="Times,serif" font-size="14.00"> </text>
</g>
<!-- node2 -->
<g id="node7" class="node">
<title>node2</title>
<polygon fill="grey" stroke="none" points="287.5,-499.5 287.5,-518.5 1147.5,-518.5 1147.5,-499.5 287.5,-499.5"/>
<text text-anchor="start" x="699.5" y="-504.2" font-family="DejaVu Sans" font-weight="bold" font-size="14.00">water</text>
<g id="a_node7_6"><a xlink:href="https://example.net/my/extension/water" xlink:title="&lt;TABLE&gt;">
<polygon fill="#eeeeee" stroke="none" points="287.5,-484.5 287.5,-499.5 1147.5,-499.5 1147.5,-484.5 287.5,-484.5"/>
<text text-anchor="start" x="631.25" y="-488" font-family="DejaVu Sans" font-size="10.00" fill="#6666ff">https://example.net/my/extension/water</text>
</a>
</g>
<text text-anchor="start" x="289.5" y="-469.2" font-family="DejaVu Sans" font-size="14.00">skos:altLabel</text>
<text text-anchor="start" x="380.5" y="-469.2" font-family="DejaVu Sans" font-size="14.00">&quot;Aqua&quot;@en</text>
<text text-anchor="start" x="289.5" y="-450.2" font-family="DejaVu Sans" font-size="14.00">skos:altLabel</text>
<text text-anchor="start" x="380.5" y="-450.2" font-family="DejaVu Sans" font-size="14.00">&quot;H2O&quot;</text>
<text text-anchor="start" x="289.5" y="-431.2" font-family="DejaVu Sans" font-size="14.00">skos:definition</text>
<text text-anchor="start" x="380.5" y="-431.2" font-family="DejaVu Sans" font-size="14.00">&quot;A thing that was considered to be liquid water at the time of observation. This concept is for demonstration purposes only.&quot;@en</text>
<text text-anchor="start" x="289.5" y="-412.2" font-family="DejaVu Sans" font-size="14.00">skos:note</text>
<text text-anchor="start" x="380.5" y="-412.2" font-family="DejaVu Sans" font-size="14.00">&quot;There may be multiple notes in a concept.&quot;@en</text>
<text text-anchor="start" x="289.5" y="-393.2" font-family="DejaVu Sans" font-size="14.00">skos:note</text>
<text text-anchor="start" x="380.5" y="-393.2" font-family="DejaVu Sans" font-size="14.00">&quot;This is the first line of a note. Here&#39;s the second line.&quot;@en</text>
<text text-anchor="start" x="289.12" y="-374.2" font-family="DejaVu Sans" font-size="14.00">skos:prefLabel</text>
<text text-anchor="start" x="380.5" y="-374.2" font-family="DejaVu Sans" font-size="14.00">&quot;Water&quot;@en</text>
<polygon fill="none" stroke="#666666" points="286.5,-369.5 286.5,-519.5 1148.5,-519.5 1148.5,-369.5 286.5,-369.5"/>
</g>
<!-- node2&#45;&gt;node0 -->
<g id="edge8" class="edge">
<title>node2&#45;&gt;node0</title>
<path fill="none" stroke="BLACK" d="M280.33,-365.52C238.62,-350.53 205.98,-333.1 190.25,-313 160.82,-275.39 188.42,-224.24 217.78,-187.04"/>
<polygon fill="BLACK" stroke="BLACK" points="220.28,-189.51 223.89,-179.55 214.85,-185.09 220.28,-189.51"/>
<text text-anchor="start" x="190.5" y="-267.95" font-family="Times,serif" font-size="14.00"> </text>
<text text-anchor="start" x="194.25" y="-267.95" font-family="Times,serif" font-size="10.00" fill="#336633">skos:inScheme</text>
<text text-anchor="start" x="255" y="-267.95" font-family="Times,serif" font-size="14.00"> </text>
</g>
<!-- node2&#45;&gt;node3 -->
<g id="edge7" class="edge">
<title>node2&#45;&gt;node3</title>
<path fill="none" stroke="BLACK" d="M717.5,-365.73C717.5,-351.6 717.5,-337.2 717.5,-324.09"/>
<polygon fill="BLACK" stroke="BLACK" points="721,-324.45 717.5,-314.45 714,-324.45 721,-324.45"/>
<text text-anchor="start" x="717.5" y="-335.2" font-family="Times,serif" font-size="14.00"> </text>
<text text-anchor="start" x="721.25" y="-335.2" font-family="Times,serif" font-size="10.00" fill="#336633">skos:broader</text>
<text text-anchor="start" x="773" y="-335.2" font-family="Times,serif" font-size="14.00"> </text>
</g>
<!-- node2&#45;&gt;node5 -->
<g id="edge6" class="edge">
<title>node2&#45;&gt;node5</title>
<path fill="none" stroke="BLACK" d="M1087.65,-365.54C1129.04,-350.17 1161.68,-332.63 1176.5,-313 1198.47,-283.92 1190.03,-264.84 1176.5,-231 1166.34,-205.59 1145.52,-183.18 1126.68,-166.78"/>
<polygon fill="BLACK" stroke="BLACK" points="1129,-164.16 1119.09,-160.42 1124.51,-169.53 1129,-164.16"/>
<text text-anchor="start" x="1189.5" y="-267.95" font-family="Times,serif" font-size="14.00"> </text>
<text text-anchor="start" x="1193.25" y="-267.95" font-family="Times,serif" font-size="10.00" fill="#336633">rdf:type</text>
<text text-anchor="start" x="1225.5" y="-267.95" font-family="Times,serif" font-size="14.00"> </text>
</g>
</g>
</svg>
