<?xml version="1.0" encoding="UTF-8" standalone="no"?>
<!DOCTYPE svg PUBLIC "-//W3C//DTD SVG 1.1//EN"
 "http://www.w3.org/Graphics/SVG/1.1/DTD/svg11.dtd">
<!-- Generated by graphviz version 9.0.0 (20230911.1827)
 -->
<!-- Pages: 1 -->
<svg width="1904pt" height="742pt"
 viewBox="0.00 0.00 1903.66 742.00" xmlns="http://www.w3.org/2000/svg" xmlns:xlink="http://www.w3.org/1999/xlink">
<g id="graph0" class="graph" transform="scale(1 1) rotate(0) translate(4 738)">
<polygon fill="white" stroke="none" points="-4,4 -4,-738 1899.66,-738 1899.66,4 -4,4"/>
<!-- node0 -->
<g id="node1" class="node">
<title>node0</title>
<polygon fill="grey" stroke="none" points="578.91,-192.5 578.91,-211.5 1048.91,-211.5 1048.91,-192.5 578.91,-192.5"/>
<text text-anchor="start" x="794.41" y="-197.2" font-family="DejaVu Sans" font-weight="bold" font-size="14.00">vocab</text>
<g id="a_node1_0"><a xlink:href="https://example.net/my/minimal/vocab" xlink:title="&lt;TABLE&gt;">
<polygon fill="#eeeeee" stroke="none" points="578.91,-177.5 578.91,-192.5 1048.91,-192.5 1048.91,-177.5 578.91,-177.5"/>
<text text-anchor="start" x="730.66" y="-181" font-family="DejaVu Sans" font-size="10.00" fill="#6666ff">https://example.net/my/minimal/vocab</text>
</a>
</g>
<text text-anchor="start" x="580.91" y="-162.2" font-family="DejaVu Sans" font-size="14.00">skos:definition</text>
<text text-anchor="start" x="683.91" y="-162.2" font-family="DejaVu Sans" font-size="14.00">&quot;This is an example of a minimal iSamples vocabulary.&quot;@en</text>
<text text-anchor="start" x="580.54" y="-143.2" font-family="DejaVu Sans" font-size="14.00">skos:historyNote</text>
<text text-anchor="start" x="683.91" y="-143.2" font-family="DejaVu Sans" font-size="14.00">&quot;2023&#45;07&#45;01 DV Created for structural reference.&quot;@en</text>
<text text-anchor="start" x="580.54" y="-124.2" font-family="DejaVu Sans" font-size="14.00">skos:historyNote</text>
<text text-anchor="start" x="683.91" y="-124.2" font-family="DejaVu Sans" font-size="14.00">&quot;2023&#45;07&#45;26 DV Adjusted descriptions.&quot;@en</text>
<text text-anchor="start" x="580.91" y="-105.2" font-family="DejaVu Sans" font-size="14.00">skos:prefLabel</text>
<text text-anchor="start" x="683.91" y="-105.2" font-family="DejaVu Sans" font-size="14.00">&quot;Minimal Example Vocabulary&quot;@en</text>
<polygon fill="none" stroke="#666666" points="577.91,-100.5 577.91,-212.5 1049.91,-212.5 1049.91,-100.5 577.91,-100.5"/>
</g>
<!-- node1 -->
<g id="node2" class="node">
<title>node1</title>
<polygon fill="grey" stroke="none" points="420.91,-20 420.91,-39 664.91,-39 664.91,-20 420.91,-20"/>
<text text-anchor="start" x="489.66" y="-24.7" font-family="DejaVu Sans" font-weight="bold" font-size="14.00">ConceptScheme</text>
<g id="a_node2_1"><a xlink:href="http://www.w3.org/2004/02/skos/core#ConceptScheme" xlink:title="&lt;TABLE&gt;">
<polygon fill="#eeeeee" stroke="none" points="420.91,-5 420.91,-20 664.91,-20 664.91,-5 420.91,-5"/>
<text text-anchor="start" x="422.91" y="-8.5" font-family="DejaVu Sans" font-size="10.00" fill="#6666ff">http://www.w3.org/2004/02/skos/core#ConceptScheme</text>
</a>
</g>
<polygon fill="none" stroke="#666666" points="419.91,-4 419.91,-40 665.91,-40 665.91,-4 419.91,-4"/>
</g>
<!-- node0&#45;&gt;node1 -->
<g id="edge1" class="edge">
<title>node0&#45;&gt;node1</title>
<path fill="none" stroke="BLACK" d="M693.47,-96.61C659.38,-79.94 623.99,-62.64 596.1,-49.01"/>
<polygon fill="BLACK" stroke="BLACK" points="597.68,-45.88 587.16,-44.63 594.6,-52.17 597.68,-45.88"/>
<text text-anchor="start" x="654.91" y="-66.2" font-family="Times,serif" font-size="14.00"> </text>
<text text-anchor="start" x="658.66" y="-66.2" font-family="Times,serif" font-size="10.00" fill="#336633">rdf:type</text>
<text text-anchor="start" x="690.91" y="-66.2" font-family="Times,serif" font-size="14.00"> </text>
</g>
<!-- node7 -->
<g id="node5" class="node">
<title>node7</title>
<polygon fill="grey" stroke="none" points="730.91,-20 730.91,-39 896.91,-39 896.91,-20 730.91,-20"/>
<text text-anchor="start" x="799.66" y="-24.7" font-family="DejaVu Sans" font-weight="bold" font-size="14.00">core</text>
<g id="a_node5_2"><a xlink:href="http://www.w3.org/2004/02/skos/core" xlink:title="&lt;TABLE&gt;">
<polygon fill="#eeeeee" stroke="none" points="730.91,-5 730.91,-20 896.91,-20 896.91,-5 730.91,-5"/>
<text text-anchor="start" x="732.91" y="-8.5" font-family="DejaVu Sans" font-size="10.00" fill="#6666ff">http://www.w3.org/2004/02/skos/core</text>
</a>
</g>
<polygon fill="none" stroke="#666666" points="729.91,-4 729.91,-40 897.91,-40 897.91,-4 729.91,-4"/>
</g>
<!-- node0&#45;&gt;node7 -->
<g id="edge3" class="edge">
<title>node0&#45;&gt;node7</title>
<path fill="none" stroke="BLACK" d="M813.91,-96.61C813.91,-82.37 813.91,-67.66 813.91,-55.17"/>
<polygon fill="BLACK" stroke="BLACK" points="817.41,-55.48 813.91,-45.48 810.41,-55.48 817.41,-55.48"/>
<text text-anchor="start" x="813.91" y="-66.2" font-family="Times,serif" font-size="14.00"> </text>
<text text-anchor="start" x="817.66" y="-66.2" font-family="Times,serif" font-size="10.00" fill="#336633">owl:imports</text>
<text text-anchor="start" x="867.16" y="-66.2" font-family="Times,serif" font-size="14.00"> </text>
</g>
<!-- node3 -->
<g id="node3" class="node">
<title>node3</title>
<polygon fill="grey" stroke="none" points="1025.41,-499.5 1025.41,-518.5 1822.41,-518.5 1822.41,-499.5 1025.41,-499.5"/>
<text text-anchor="start" x="1408.16" y="-504.2" font-family="DejaVu Sans" font-weight="bold" font-size="14.00">solid</text>
<g id="a_node3_3"><a xlink:href="https://example.net/my/minimal/solid" xlink:title="&lt;TABLE&gt;">
<polygon fill="#eeeeee" stroke="none" points="1025.41,-484.5 1025.41,-499.5 1822.41,-499.5 1822.41,-484.5 1025.41,-484.5"/>
<text text-anchor="start" x="1343.66" y="-488" font-family="DejaVu Sans" font-size="10.00" fill="#6666ff">https://example.net/my/minimal/solid</text>
</a>
</g>
<text text-anchor="start" x="1027.41" y="-469.2" font-family="DejaVu Sans" font-size="14.00">skos:definition</text>
<text text-anchor="start" x="1130.04" y="-469.2" font-family="DejaVu Sans" font-size="14.00">&quot;A thing that was considered solid at the time of observation. This concept is for demonstration purposes only.&quot;@en</text>
<text text-anchor="start" x="1027.04" y="-450.2" font-family="DejaVu Sans" font-size="14.00">skos:historyNote</text>
<text text-anchor="start" x="1130.41" y="-450.2" font-family="DejaVu Sans" font-size="14.00">&quot;2023&#45;07&#45;26 DV Added explanatory notes.&quot;</text>
<text text-anchor="start" x="1027.41" y="-431.2" font-family="DejaVu Sans" font-size="14.00">skos:prefLabel</text>
<text text-anchor="start" x="1130.41" y="-431.2" font-family="DejaVu Sans" font-size="14.00">&quot;Solid&quot;@en</text>
<polygon fill="none" stroke="#666666" points="1024.41,-426.5 1024.41,-519.5 1823.41,-519.5 1823.41,-426.5 1024.41,-426.5"/>
</g>
<!-- node3&#45;&gt;node0 -->
<g id="edge5" class="edge">
<title>node3&#45;&gt;node0</title>
<path fill="none" stroke="BLACK" d="M1396.55,-422.73C1387.97,-406.24 1378.87,-387.58 1371.66,-370 1353.82,-326.46 1373.44,-302.01 1339.91,-269 1300.16,-229.86 1182.88,-202.96 1069.12,-185.41"/>
<polygon fill="BLACK" stroke="BLACK" points="1069.68,-181.95 1059.26,-183.91 1068.63,-188.87 1069.68,-181.95"/>
<text text-anchor="start" x="1370.91" y="-315.45" font-family="Times,serif" font-size="14.00"> </text>
<text text-anchor="start" x="1374.66" y="-315.45" font-family="Times,serif" font-size="10.00" fill="#336633">skos:inScheme</text>
<text text-anchor="start" x="1435.41" y="-315.45" font-family="Times,serif" font-size="14.00"> </text>
</g>
<!-- node4 -->
<g id="node4" class="node">
<title>node4</title>
<polygon fill="grey" stroke="none" points="697.41,-346 697.41,-365 1250.41,-365 1250.41,-346 697.41,-346"/>
<text text-anchor="start" x="957.41" y="-350.7" font-family="DejaVu Sans" font-weight="bold" font-size="14.00">thing</text>
<g id="a_node4_4"><a xlink:href="https://example.net/my/minimal/thing" xlink:title="&lt;TABLE&gt;">
<polygon fill="#eeeeee" stroke="none" points="697.41,-331 697.41,-346 1250.41,-346 1250.41,-331 697.41,-331"/>
<text text-anchor="start" x="893.29" y="-334.5" font-family="DejaVu Sans" font-size="10.00" fill="#6666ff">https://example.net/my/minimal/thing</text>
</a>
</g>
<text text-anchor="start" x="699.41" y="-315.7" font-family="DejaVu Sans" font-size="14.00">skos:definition</text>
<text text-anchor="start" x="802.29" y="-315.7" font-family="DejaVu Sans" font-size="14.00">&quot;Any physical thing. This concept is for demonstration purposes only.&quot;@en</text>
<text text-anchor="start" x="699.04" y="-296.7" font-family="DejaVu Sans" font-size="14.00">skos:historyNote</text>
<text text-anchor="start" x="802.41" y="-296.7" font-family="DejaVu Sans" font-size="14.00">&quot;2023&#45;07&#45;26 DV Added explanatory notes.&quot;</text>
<text text-anchor="start" x="699.41" y="-277.7" font-family="DejaVu Sans" font-size="14.00">skos:prefLabel</text>
<text text-anchor="start" x="802.41" y="-277.7" font-family="DejaVu Sans" font-size="14.00">&quot;Thing&quot;@en</text>
<polygon fill="none" stroke="#666666" points="696.41,-273 696.41,-366 1251.41,-366 1251.41,-273 696.41,-273"/>
</g>
<!-- node3&#45;&gt;node4 -->
<g id="edge2" class="edge">
<title>node3&#45;&gt;node4</title>
<path fill="none" stroke="BLACK" d="M1277.19,-422.6C1230.57,-406.91 1178.84,-389.49 1131.49,-373.55"/>
<polygon fill="BLACK" stroke="BLACK" points="1132.85,-370.32 1122.26,-370.44 1130.62,-376.95 1132.85,-370.32"/>
<text text-anchor="start" x="1211.91" y="-392.2" font-family="Times,serif" font-size="14.00"> </text>
<text text-anchor="start" x="1215.66" y="-392.2" font-family="Times,serif" font-size="10.00" fill="#336633">skos:broader</text>
<text text-anchor="start" x="1267.41" y="-392.2" font-family="Times,serif" font-size="14.00"> </text>
</g>
<!-- node8 -->
<g id="node9" class="node">
<title>node8</title>
<polygon fill="grey" stroke="none" points="1281.91,-154.5 1281.91,-173.5 1489.91,-173.5 1489.91,-154.5 1281.91,-154.5"/>
<text text-anchor="start" x="1358.91" y="-159.2" font-family="DejaVu Sans" font-weight="bold" font-size="14.00">Concept</text>
<g id="a_node9_5"><a xlink:href="http://www.w3.org/2004/02/skos/core#Concept" xlink:title="&lt;TABLE&gt;">
<polygon fill="#eeeeee" stroke="none" points="1281.91,-139.5 1281.91,-154.5 1489.91,-154.5 1489.91,-139.5 1281.91,-139.5"/>
<text text-anchor="start" x="1283.91" y="-143" font-family="DejaVu Sans" font-size="10.00" fill="#6666ff">http://www.w3.org/2004/02/skos/core#Concept</text>
</a>
</g>
<polygon fill="none" stroke="#666666" points="1280.91,-138.5 1280.91,-174.5 1490.91,-174.5 1490.91,-138.5 1280.91,-138.5"/>
</g>
<!-- node3&#45;&gt;node8 -->
<g id="edge15" class="edge">
<title>node3&#45;&gt;node8</title>
<path fill="none" stroke="BLACK" d="M1437.95,-422.53C1447.56,-381.02 1456.49,-320.43 1443.91,-269 1436.75,-239.72 1420.44,-209.58 1406.93,-188.03"/>
<polygon fill="BLACK" stroke="BLACK" points="1409.95,-186.25 1401.59,-179.74 1404.06,-190.05 1409.95,-186.25"/>
<text text-anchor="start" x="1449.91" y="-315.45" font-family="Times,serif" font-size="14.00"> </text>
<text text-anchor="start" x="1453.66" y="-315.45" font-family="Times,serif" font-size="10.00" fill="#336633">rdf:type</text>
<text text-anchor="start" x="1485.91" y="-315.45" font-family="Times,serif" font-size="14.00"> </text>
</g>
<!-- node4&#45;&gt;node0 -->
<g id="edge12" class="edge">
<title>node4&#45;&gt;node0</title>
<path fill="none" stroke="BLACK" d="M925.04,-269.32C910.87,-255.07 895.17,-239.26 880.13,-224.13"/>
<polygon fill="BLACK" stroke="BLACK" points="882.94,-221.99 873.41,-217.36 877.97,-226.92 882.94,-221.99"/>
<text text-anchor="start" x="902.91" y="-238.7" font-family="Times,serif" font-size="14.00"> </text>
<text text-anchor="start" x="906.66" y="-238.7" font-family="Times,serif" font-size="10.00" fill="#336633">skos:topConceptOf</text>
<text text-anchor="start" x="986.16" y="-238.7" font-family="Times,serif" font-size="14.00"> </text>
</g>
<!-- node4&#45;&gt;node8 -->
<g id="edge10" class="edge">
<title>node4&#45;&gt;node8</title>
<path fill="none" stroke="BLACK" d="M1100.33,-269.1C1173.59,-240.47 1262.72,-205.64 1321.71,-182.59"/>
<polygon fill="BLACK" stroke="BLACK" points="1322.92,-185.88 1330.96,-178.98 1320.37,-179.36 1322.92,-185.88"/>
<text text-anchor="start" x="1179.91" y="-238.7" font-family="Times,serif" font-size="14.00"> </text>
<text text-anchor="start" x="1183.66" y="-238.7" font-family="Times,serif" font-size="10.00" fill="#336633">rdf:type</text>
<text text-anchor="start" x="1215.91" y="-238.7" font-family="Times,serif" font-size="14.00"> </text>
</g>
<!-- node6 -->
<g id="node6" class="node">
<title>node6</title>
<polygon fill="grey" stroke="none" points="106.91,-490 106.91,-509 988.91,-509 988.91,-490 106.91,-490"/>
<text text-anchor="start" x="529.91" y="-494.7" font-family="DejaVu Sans" font-weight="bold" font-size="14.00">liquid</text>
<g id="a_node6_6"><a xlink:href="https://example.net/my/extension/liquid" xlink:title="&lt;TABLE&gt;">
<polygon fill="#eeeeee" stroke="none" points="106.91,-475 106.91,-490 988.91,-490 988.91,-475 106.91,-475"/>
<text text-anchor="start" x="462.41" y="-478.5" font-family="DejaVu Sans" font-size="10.00" fill="#6666ff">https://example.net/my/extension/liquid</text>
</a>
</g>
<text text-anchor="start" x="108.91" y="-459.7" font-family="DejaVu Sans" font-size="14.00">skos:definition</text>
<text text-anchor="start" x="199.66" y="-459.7" font-family="DejaVu Sans" font-size="14.00">&quot;A thing that was considered to be of a liquid state at the time of observation. This concept is for demonstration purposes only.&quot;@en</text>
<text text-anchor="start" x="108.54" y="-440.7" font-family="DejaVu Sans" font-size="14.00">skos:prefLabel</text>
<text text-anchor="start" x="199.91" y="-440.7" font-family="DejaVu Sans" font-size="14.00">&quot;Liquid&quot;@en</text>
<polygon fill="none" stroke="#666666" points="105.91,-436 105.91,-510 989.91,-510 989.91,-436 105.91,-436"/>
</g>
<!-- node6&#45;&gt;node4 -->
<g id="edge9" class="edge">
<title>node6&#45;&gt;node4</title>
<path fill="none" stroke="BLACK" d="M660.12,-432.1C710.38,-414.22 770.38,-392.88 824.39,-373.68"/>
<polygon fill="BLACK" stroke="BLACK" points="825.43,-377.02 833.68,-370.37 823.09,-370.43 825.43,-377.02"/>
<text text-anchor="start" x="772.91" y="-392.2" font-family="Times,serif" font-size="14.00"> </text>
<text text-anchor="start" x="776.66" y="-392.2" font-family="Times,serif" font-size="10.00" fill="#336633">skos:broader</text>
<text text-anchor="start" x="828.41" y="-392.2" font-family="Times,serif" font-size="14.00"> </text>
</g>
<!-- node2 -->
<g id="node7" class="node">
<title>node2</title>
<polygon fill="grey" stroke="none" points="152.41,-336.5 152.41,-355.5 661.41,-355.5 661.41,-336.5 152.41,-336.5"/>
<text text-anchor="start" x="387.41" y="-341.2" font-family="DejaVu Sans" font-weight="bold" font-size="14.00">vocab</text>
<g id="a_node7_7"><a xlink:href="https://example.net/my/extension/vocab" xlink:title="&lt;TABLE&gt;">
<polygon fill="#eeeeee" stroke="none" points="152.41,-321.5 152.41,-336.5 661.41,-336.5 661.41,-321.5 152.41,-321.5"/>
<text text-anchor="start" x="319.54" y="-325" font-family="DejaVu Sans" font-size="10.00" fill="#6666ff">https://example.net/my/extension/vocab</text>
</a>
</g>
<text text-anchor="start" x="154.41" y="-306.2" font-family="DejaVu Sans" font-size="14.00">skos:definition</text>
<text text-anchor="start" x="245.41" y="-306.2" font-family="DejaVu Sans" font-size="14.00">&quot;This is an example of an extension to an iSamples vocabulary.&quot;@en</text>
<text text-anchor="start" x="154.04" y="-287.2" font-family="DejaVu Sans" font-size="14.00">skos:prefLabel</text>
<text text-anchor="start" x="245.41" y="-287.2" font-family="DejaVu Sans" font-size="14.00">&quot;Simple Vocabulary Extension&quot;@en</text>
<polygon fill="none" stroke="#666666" points="151.41,-282.5 151.41,-356.5 662.41,-356.5 662.41,-282.5 151.41,-282.5"/>
</g>
<!-- node6&#45;&gt;node2 -->
<g id="edge4" class="edge">
<title>node6&#45;&gt;node2</title>
<path fill="none" stroke="BLACK" d="M510.87,-432.2C492.72,-412.7 470.73,-389.07 451.66,-368.58"/>
<polygon fill="BLACK" stroke="BLACK" points="454.36,-366.35 444.99,-361.41 449.24,-371.11 454.36,-366.35"/>
<text text-anchor="start" x="481.91" y="-392.2" font-family="Times,serif" font-size="14.00"> </text>
<text text-anchor="start" x="485.66" y="-392.2" font-family="Times,serif" font-size="10.00" fill="#336633">skos:inScheme</text>
<text text-anchor="start" x="546.41" y="-392.2" font-family="Times,serif" font-size="14.00"> </text>
</g>
<!-- node6&#45;&gt;node8 -->
<g id="edge11" class="edge">
<title>node6&#45;&gt;node8</title>
<path fill="none" stroke="BLACK" d="M906.56,-432.01C940.8,-428.61 975.01,-425.38 1007.91,-422.5 1037.53,-419.91 1252.98,-424.58 1274.91,-404.5 1319.88,-363.34 1271.49,-324.74 1296.16,-269 1310.13,-237.44 1335.35,-207.31 1355.51,-186.35"/>
<polygon fill="BLACK" stroke="BLACK" points="1357.93,-188.88 1362.45,-179.3 1352.94,-183.97 1357.93,-188.88"/>
<text text-anchor="start" x="1295.91" y="-315.45" font-family="Times,serif" font-size="14.00"> </text>
<text text-anchor="start" x="1299.66" y="-315.45" font-family="Times,serif" font-size="10.00" fill="#336633">rdf:type</text>
<text text-anchor="start" x="1331.91" y="-315.45" font-family="Times,serif" font-size="14.00"> </text>
</g>
<!-- node2&#45;&gt;node0 -->
<g id="edge8" class="edge">
<title>node2&#45;&gt;node0</title>
<path fill="none" stroke="BLACK" d="M507.78,-278.6C552.07,-261.08 605.14,-240.09 654.56,-220.54"/>
<polygon fill="BLACK" stroke="BLACK" points="655.63,-223.88 663.64,-216.95 653.05,-217.37 655.63,-223.88"/>
<text text-anchor="start" x="610.91" y="-238.7" font-family="Times,serif" font-size="14.00"> </text>
<text text-anchor="start" x="614.66" y="-238.7" font-family="Times,serif" font-size="10.00" fill="#336633">skos:inScheme</text>
<text text-anchor="start" x="675.41" y="-238.7" font-family="Times,serif" font-size="14.00"> </text>
</g>
<!-- node2&#45;&gt;node1 -->
<g id="edge13" class="edge">
<title>node2&#45;&gt;node1</title>
<path fill="none" stroke="BLACK" d="M425.26,-278.65C452.66,-219.1 503.72,-108.16 528.58,-54.15"/>
<polygon fill="BLACK" stroke="BLACK" points="531.69,-55.75 532.69,-45.21 525.33,-52.83 531.69,-55.75"/>
<text text-anchor="start" x="507.91" y="-152.45" font-family="Times,serif" font-size="14.00"> </text>
<text text-anchor="start" x="511.66" y="-152.45" font-family="Times,serif" font-size="10.00" fill="#336633">rdf:type</text>
<text text-anchor="start" x="543.91" y="-152.45" font-family="Times,serif" font-size="14.00"> </text>
</g>
<!-- node5 -->
<g id="node8" class="node">
<title>node5</title>
<polygon fill="grey" stroke="none" points="117.91,-710 117.91,-729 977.91,-729 977.91,-710 117.91,-710"/>
<text text-anchor="start" x="529.91" y="-714.7" font-family="DejaVu Sans" font-weight="bold" font-size="14.00">water</text>
<g id="a_node8_8"><a xlink:href="https://example.net/my/extension/water" xlink:title="&lt;TABLE&gt;">
<polygon fill="#eeeeee" stroke="none" points="117.91,-695 117.91,-710 977.91,-710 977.91,-695 117.91,-695"/>
<text text-anchor="start" x="461.66" y="-698.5" font-family="DejaVu Sans" font-size="10.00" fill="#6666ff">https://example.net/my/extension/water</text>
</a>
</g>
<text text-anchor="start" x="119.91" y="-679.7" font-family="DejaVu Sans" font-size="14.00">skos:altLabel</text>
<text text-anchor="start" x="210.91" y="-679.7" font-family="DejaVu Sans" font-size="14.00">&quot;Aqua&quot;@en</text>
<text text-anchor="start" x="119.91" y="-660.7" font-family="DejaVu Sans" font-size="14.00">skos:altLabel</text>
<text text-anchor="start" x="210.91" y="-660.7" font-family="DejaVu Sans" font-size="14.00">&quot;H2O&quot;</text>
<text text-anchor="start" x="119.91" y="-641.7" font-family="DejaVu Sans" font-size="14.00">skos:definition</text>
<text text-anchor="start" x="210.91" y="-641.7" font-family="DejaVu Sans" font-size="14.00">&quot;A thing that was considered to be liquid water at the time of observation. This concept is for demonstration purposes only.&quot;@en</text>
<text text-anchor="start" x="119.91" y="-622.7" font-family="DejaVu Sans" font-size="14.00">skos:note</text>
<text text-anchor="start" x="210.91" y="-622.7" font-family="DejaVu Sans" font-size="14.00">&quot;There may be multiple notes in a concept.&quot;@en</text>
<text text-anchor="start" x="119.91" y="-603.7" font-family="DejaVu Sans" font-size="14.00">skos:note</text>
<text text-anchor="start" x="210.91" y="-603.7" font-family="DejaVu Sans" font-size="14.00">&quot;This is the first line of a note. Here&#39;s the second line.&quot;@en</text>
<text text-anchor="start" x="119.54" y="-584.7" font-family="DejaVu Sans" font-size="14.00">skos:prefLabel</text>
<text text-anchor="start" x="210.91" y="-584.7" font-family="DejaVu Sans" font-size="14.00">&quot;Water&quot;@en</text>
<polygon fill="none" stroke="#666666" points="116.91,-580 116.91,-730 978.91,-730 978.91,-580 116.91,-580"/>
</g>
<!-- node5&#45;&gt;node6 -->
<g id="edge6" class="edge">
<title>node5&#45;&gt;node6</title>
<path fill="none" stroke="BLACK" d="M547.91,-576.1C547.91,-558.82 547.91,-540.93 547.91,-525.05"/>
<polygon fill="BLACK" stroke="BLACK" points="551.41,-525.39 547.91,-515.39 544.41,-525.39 551.41,-525.39"/>
<text text-anchor="start" x="547.91" y="-545.7" font-family="Times,serif" font-size="14.00"> </text>
<text text-anchor="start" x="551.66" y="-545.7" font-family="Times,serif" font-size="10.00" fill="#336633">skos:broader</text>
<text text-anchor="start" x="603.41" y="-545.7" font-family="Times,serif" font-size="14.00"> </text>
</g>
<!-- node5&#45;&gt;node2 -->
<g id="edge7" class="edge">
<title>node5&#45;&gt;node2</title>
<path fill="none" stroke="BLACK" d="M110.75,-576.02C69.04,-561.03 36.39,-543.6 20.66,-523.5 -7,-488.15 -6.73,-458.06 20.66,-422.5 39.38,-398.2 91.26,-378.52 151.16,-363.16"/>
<polygon fill="BLACK" stroke="BLACK" points="151.71,-366.63 160.56,-360.81 150.01,-359.84 151.71,-366.63"/>
<text text-anchor="start" x="20.91" y="-468.95" font-family="Times,serif" font-size="14.00"> </text>
<text text-anchor="start" x="24.66" y="-468.95" font-family="Times,serif" font-size="10.00" fill="#336633">skos:inScheme</text>
<text text-anchor="start" x="85.41" y="-468.95" font-family="Times,serif" font-size="14.00"> </text>
</g>
<!-- node5&#45;&gt;node8 -->
<g id="edge14" class="edge">
<title>node5&#45;&gt;node8</title>
<path fill="none" stroke="BLACK" d="M986.68,-638.35C1338.73,-621.15 1783.44,-587.07 1840.91,-523.5 1975.97,-374.13 1627.49,-236.2 1464.55,-181.89"/>
<polygon fill="BLACK" stroke="BLACK" points="1466.12,-178.73 1455.53,-178.91 1463.93,-185.37 1466.12,-178.73"/>
<text text-anchor="start" x="1855.91" y="-392.2" font-family="Times,serif" font-size="14.00"> </text>
<text text-anchor="start" x="1859.66" y="-392.2" font-family="Times,serif" font-size="10.00" fill="#336633">rdf:type</text>
<text text-anchor="start" x="1891.91" y="-392.2" font-family="Times,serif" font-size="14.00"> </text>
</g>
</g>
</svg>
